<?xml version="1.0" encoding="utf-8"?>
<!-- Generator: Adobe Illustrator 25.4.1, SVG Export Plug-In . SVG Version: 6.00 Build 0)  -->
<svg version="1.1" id="Capa_1" xmlns="http://www.w3.org/2000/svg" xmlns:xlink="http://www.w3.org/1999/xlink" x="0px" y="0px"
	 viewBox="0 0 19.6 7.2" style="enable-background:new 0 0 19.6 7.2;" xml:space="preserve">
<style type="text/css">
	.st0{fill:url(#SVGID_1_);}
	.st1{fill:#FFFFFF;}
</style>
<g>
	<radialGradient id="SVGID_1_" cx="3.9789" cy="2.1" r="22.4351" gradientUnits="userSpaceOnUse">
		<stop  offset="0.1721" style="stop-color:#000000"/>
		<stop  offset="0.3544" style="stop-color:#9A9A9A"/>
		<stop  offset="0.4796" style="stop-color:#FFFFFF"/>
		<stop  offset="0.4953" style="stop-color:#F2F2F2"/>
		<stop  offset="0.6589" style="stop-color:#717171"/>
		<stop  offset="0.7706" style="stop-color:#202020"/>
		<stop  offset="0.8214" style="stop-color:#000000"/>
	</radialGradient>
	<path class="st0" d="M19.5,1c-0.1-0.3-0.3-0.6-0.5-0.7c0.1,0.1,0.1,0.2,0.1,0.3c0.1,0.3,0.1,0.7,0,1.1l-0.2,0.5l-1.6,3.7
		c-0.2,0.6-0.8,0.9-1.4,0.9H1.1c-0.2,0-0.4,0-0.6-0.1C0.4,6.6,0.3,6.6,0.2,6.5C0.4,6.8,0.6,7,0.9,7.1c0.2,0.1,0.4,0.1,0.6,0.1h14.8
		c0.6,0,1.2-0.4,1.4-0.9l1.6-3.7l0.2-0.5C19.6,1.8,19.6,1.4,19.5,1z"/>
</g>
<path class="st1" d="M16.5,4.5c0,0.2,0,0.4,0,0.6c0,0-0.1,0-0.1,0c-2,0-3.9,0-5.9,0c-0.2,0-0.2,0-0.2-0.2c0-0.7,0-1.3,0-2
	c0-0.1,0-0.2,0.1-0.3c0.2-0.2,0.4-0.4,0.6-0.6c0.1-0.1,0.1-0.1,0.2-0.1c1.7,0,3.5,0,5.2,0c0,0,0,0,0,0c0,0.2,0,0.4,0,0.6
	c0,0-0.1,0-0.1,0c-1.6,0-3.2,0-4.8,0c-0.1,0-0.2,0-0.3,0.1C11.1,3,11,3.2,11,3.5c0,0.2,0,0.4,0,0.6c0,0.1,0,0.2,0,0.3
	c0,0,0,0.1,0,0.1c0,0,0,0,0.1,0c1.8,0,3.5,0,5.3,0C16.4,4.5,16.4,4.5,16.5,4.5z"/>
<path class="st1" d="M4.1,3.9c0,0.4,0,0.8,0,1.2c-0.2,0-0.4,0-0.6,0c0,0,0-0.1,0-0.1c0-0.9,0-1.9,0-2.8c0,0,0,0,0,0
	c0-0.1,0-0.1,0.2-0.1c1.9,0,3.9,0,5.8,0c0,0,0,0,0.1,0c0.1,0,0.1,0,0.1,0.1c0,0.2,0,0.3,0,0.5c0,0.1,0,0.2-0.1,0.3
	C9.3,3.2,9,3.4,8.8,3.7C8.5,3.9,8.6,3.9,8.2,3.9c-1.3,0-2.7,0-4,0C4.2,3.9,4.1,3.9,4.1,3.9z M4.1,3.3C4.2,3.3,4.2,3.3,4.1,3.3
	c0.9,0,1.8,0,2.6,0c0.3,0,0.7,0,1,0c0.1,0,0.3,0,0.4,0c0.1,0,0.1,0,0.2-0.1C8.5,3.1,8.6,3,8.7,2.9c0.1-0.1,0.1-0.1,0.2-0.2
	c0,0,0,0,0,0c-1.6,0-3.2,0-4.8,0C4.1,2.9,4.1,3.1,4.1,3.3z"/>
</svg>
