<svg id="Capa_1" data-name="Capa 1" xmlns="http://www.w3.org/2000/svg" viewBox="0 0 19.61 7.24"><defs><style>.cls-1{fill:#fff;}.cls-2{fill:#1e3d86;}</style></defs><path class="cls-1" d="M1.91.92.12,5.13a1.52,1.52,0,0,0,1.4,2.11H16.31a1.53,1.53,0,0,0,1.39-.93l1.79-4.2A1.51,1.51,0,0,0,18.1,0H3.31A1.52,1.52,0,0,0,1.91.92Z"/><path class="cls-2" d="M12.33,2.56v-.4h.12c1.11,0,2.22,0,3.34,0a.65.65,0,0,1,.69.55.92.92,0,0,1-.23.9.94.94,0,0,1,.26.67.8.8,0,0,1-.83.86H12.43c-.08,0-.11,0-.1-.1V4.75h3.19c.48,0,.6-.26.52-.66s-.16-.35-.43-.35H12.47c-.14,0-.14,0-.14-.15V3.53c0-.09,0-.11.1-.11.62,0,1.23,0,1.85,0,.46,0,.93,0,1.4,0a.41.41,0,0,0,.42-.56.37.37,0,0,0-.31-.28l-.2,0H12.33Z"/><path class="cls-2" d="M3.69,5.06H3.14a.49.49,0,0,1,0-.12c0-.27,0-.55,0-.83a.63.63,0,0,1,.69-.69H6.36a.66.66,0,0,0,.2,0A.39.39,0,0,0,6.88,3a.4.4,0,0,0-.31-.42l-.22,0H3.11V2.15H6.52a.63.63,0,0,1,.72.6.86.86,0,0,1-.15.76.82.82,0,0,1-.65.3H3.94a.23.23,0,0,0-.25.26Z"/><path class="cls-2" d="M11.78,2.17v.31H10.05a.48.48,0,0,0-.24.06.3.3,0,0,0-.08.21c0,.58,0,1.15,0,1.73a.56.56,0,0,1-.59.63h-2V4.81h1.7c.19,0,.26-.11.26-.3,0-.58,0-1.15,0-1.72a.56.56,0,0,1,.61-.61c.64,0,1.28,0,1.92,0Z"/></svg>