<?xml version="1.0" encoding="utf-8"?>
<!-- Generator: Adobe Illustrator 25.4.1, SVG Export Plug-In . SVG Version: 6.00 Build 0)  -->
<svg version="1.1" id="Capa_1" xmlns="http://www.w3.org/2000/svg" xmlns:xlink="http://www.w3.org/1999/xlink" x="0px" y="0px"
	 viewBox="0 0 19.6 7.2" style="enable-background:new 0 0 19.6 7.2;" xml:space="preserve">
<style type="text/css">
	.st0{fill:url(#SVGID_1_);}
	.st1{fill:#FFFFFF;}
</style>
<g>
	
		<radialGradient id="SVGID_1_" cx="4.022" cy="7.86" r="22.4351" gradientTransform="matrix(1 0 0 -1 0 10)" gradientUnits="userSpaceOnUse">
		<stop  offset="0.1721" style="stop-color:#000000"/>
		<stop  offset="0.3544" style="stop-color:#9A9A9A"/>
		<stop  offset="0.4796" style="stop-color:#FFFFFF"/>
		<stop  offset="0.4953" style="stop-color:#F2F2F2"/>
		<stop  offset="0.6589" style="stop-color:#717171"/>
		<stop  offset="0.7706" style="stop-color:#202020"/>
		<stop  offset="0.8214" style="stop-color:#000000"/>
	</radialGradient>
	<path class="st0" d="M19.5,1c-0.1-0.3-0.3-0.6-0.5-0.7c0.1,0.1,0.1,0.2,0.1,0.3c0.1,0.3,0.1,0.7,0,1.1l-0.2,0.5l-1.6,3.7
		c-0.2,0.6-0.8,0.9-1.4,0.9H1.1c-0.2,0-0.4,0-0.6-0.1C0.4,6.6,0.3,6.6,0.2,6.5C0.4,6.8,0.6,7,0.9,7.1c0.2,0.1,0.4,0.1,0.6,0.1h14.8
		c0.6,0,1.2-0.4,1.4-0.9l1.6-3.7l0.2-0.5C19.6,1.8,19.6,1.4,19.5,1z"/>
</g>
<g>
	<path class="st1" d="M11.2,2.2V1.8h0.1c1.3,0,2.6,0,3.9,0C15.6,1.7,16,2,16,2.4c0.1,0.4,0,0.8-0.3,1.1c0.2,0.2,0.3,0.5,0.3,0.8
		c0,0.5-0.3,1-0.9,1c0,0-0.1,0-0.1,0h-3.8c-0.1,0-0.1,0-0.1-0.1V4.8h3.7c0.6,0,0.7-0.3,0.6-0.8c-0.1-0.5-0.2-0.4-0.5-0.4h-3.7
		c-0.2,0-0.2,0-0.2-0.2V3.4c0-0.1,0-0.1,0.1-0.1c0.7,0,1.4,0,2.2,0c0.5,0,1.1,0,1.6,0c0.3,0,0.5-0.2,0.5-0.4c0-0.1,0-0.2,0-0.2
		c0-0.2-0.2-0.3-0.4-0.3H15L11.2,2.2L11.2,2.2z"/>
	<path class="st1" d="M1.1,5.1H0.4c0,0,0-0.1,0-0.1c0-0.3,0-0.6,0-1c0-0.4,0.3-0.8,0.7-0.8c0,0,0.1,0,0.1,0h3c0.1,0,0.2,0,0.2,0
		c0.2,0,0.4-0.3,0.4-0.5c0-0.2-0.1-0.4-0.4-0.5H4.2H0.4V1.7h4C4.8,1.7,5.2,2,5.2,2.4c0,0,0,0.1,0,0.1c0.1,0.3,0,0.6-0.2,0.9
		C4.9,3.6,4.6,3.7,4.3,3.7H1.4c-0.1,0-0.3,0.1-0.3,0.2c0,0,0,0,0,0.1V5.1z"/>
	<path class="st1" d="M10.5,1.8v0.4h-2c-0.1,0-0.2,0-0.3,0.1C8.2,2.3,8.1,2.4,8.1,2.4c0,0.7,0,1.3,0,2c0,0.4-0.2,0.7-0.6,0.7
		c0,0-0.1,0-0.1,0H5.1V4.9h2c0.2,0,0.3-0.1,0.3-0.4c0-0.7,0-1.3,0-2c0-0.4,0.2-0.7,0.6-0.7c0,0,0.1,0,0.1,0c0.7,0,1.5,0,2.2,0
		L10.5,1.8z"/>
</g>
</svg>
