<?xml version="1.0" encoding="utf-8"?>
<!-- Generator: Adobe Illustrator 25.4.1, SVG Export Plug-In . SVG Version: 6.00 Build 0)  -->
<svg version="1.1" id="Capa_1" xmlns="http://www.w3.org/2000/svg" xmlns:xlink="http://www.w3.org/1999/xlink" x="0px" y="0px"
	 viewBox="0 0 19.6 7.2" style="enable-background:new 0 0 19.6 7.2;" xml:space="preserve">
<style type="text/css">
	.st0{fill:#FF0000;}
	.st1{fill:url(#SVGID_1_);}
	.st2{fill:#FFFFFF;}
</style>
<path class="st0" d="M-2.3-9.4l-1.8,4.2c-0.3,0.8,0,1.7,0.8,2c0.2,0.1,0.4,0.1,0.6,0.1h14.8c0.6,0,1.2-0.4,1.4-0.9l1.8-4.2
	c0.3-0.8,0-1.7-0.8-2c-0.2-0.1-0.4-0.1-0.6-0.1H-0.9C-1.6-10.3-2.1-10-2.3-9.4z"/>
<g>
	<radialGradient id="SVGID_1_" cx="3.9823" cy="2.1" r="22.4351" gradientUnits="userSpaceOnUse">
		<stop  offset="0.1721" style="stop-color:#000000"/>
		<stop  offset="0.3544" style="stop-color:#9A9A9A"/>
		<stop  offset="0.4796" style="stop-color:#FFFFFF"/>
		<stop  offset="0.4953" style="stop-color:#F2F2F2"/>
		<stop  offset="0.6589" style="stop-color:#717171"/>
		<stop  offset="0.7706" style="stop-color:#202020"/>
		<stop  offset="0.8214" style="stop-color:#000000"/>
	</radialGradient>
	<path class="st1" d="M19.5,1c-0.1-0.3-0.3-0.6-0.5-0.7c0.1,0.1,0.1,0.2,0.1,0.3c0.1,0.3,0.1,0.7,0,1.1l-0.2,0.5l-1.6,3.7
		c-0.2,0.6-0.8,0.9-1.4,0.9H1.1c-0.2,0-0.4,0-0.6-0.1C0.4,6.6,0.3,6.6,0.2,6.5C0.4,6.8,0.6,7,0.9,7.1c0.2,0.1,0.4,0.1,0.6,0.1h14.8
		c0.6,0,1.2-0.4,1.4-0.9l1.6-3.7l0.2-0.5C19.6,1.8,19.6,1.4,19.5,1z"/>
</g>
<g>
	<path class="st2" d="M15.9,4.5c0.3,0,0.5,0,0.7,0c0,0.1,0,0.2,0,0.4c-0.2,0-0.5,0-0.7,0c0,0.1,0,0.2,0,0.4c-0.3,0-0.5,0-0.8,0
		c0-0.1,0-0.2,0-0.4c-0.1,0-0.1,0-0.2,0c-1.2,0-2.5,0-3.7,0c-0.1,0-0.1,0-0.2,0c-0.1,0-0.2-0.1-0.2-0.1c0-0.1,0-0.1,0.1-0.2
		c0,0,0.1-0.1,0.1-0.1c1.4-0.9,2.8-1.7,4.2-2.6c0.1-0.1,0.2-0.1,0.4-0.1c0.1,0,0.2,0.1,0.2,0.2c0,0.1,0,0.2,0,0.2c0,0.7,0,1.4,0,2.1
		C15.9,4.4,15.9,4.4,15.9,4.5z M11.8,4.4C11.8,4.4,11.8,4.5,11.8,4.4c1.1,0,2.2,0,3.3,0c0-0.7,0-1.4,0-2.1C14,3.1,12.9,3.8,11.8,4.4
		z"/>
	<path class="st2" d="M0.2,2.1c0-0.1,0-0.2,0-0.4c0.1,0,0.1,0,0.2,0c1.4,0,2.7,0,4.1,0c0.5,0,0.9,0.4,0.9,0.9c0,0.6-0.3,1-0.9,1
		c-0.4,0-0.8,0-1.1,0c-0.6,0-1.2,0-1.8,0C1.1,3.6,1,3.9,1,4.2c0,0.3,0,0.6,0,0.9c0,0,0,0.1,0,0.1c-0.2,0-0.5,0-0.7,0c0,0,0,0,0,0
		c0-0.4,0-0.8,0-1.2c0-0.5,0.4-0.7,0.9-0.7c1,0,2,0,2.9,0c0.2,0,0.4,0,0.5-0.3c0.1-0.2,0.1-0.5-0.1-0.7C4.4,2.1,4.2,2.1,4.1,2.1
		c-1,0-1.9,0-2.9,0c-0.3,0-0.5,0-0.8,0C0.3,2.1,0.3,2.1,0.2,2.1z"/>
	<path class="st2" d="M5.2,5.2c0-0.1,0-0.2,0-0.4c0.1,0,0.1,0,0.1,0c0.7,0,1.3,0,2,0c0.3,0,0.5-0.1,0.5-0.5c0-0.1,0-0.1,0-0.2
		c0-0.5,0-1,0-1.5c0-0.6,0.4-0.9,1-0.9c0.7,0,1.5,0,2.2,0c0,0,0.1,0,0.2,0c0,0.1,0,0.2,0,0.4c-0.1,0-0.1,0-0.2,0c-0.6,0-1.2,0-1.8,0
		c-0.4,0-0.5,0.2-0.5,0.5c0,0.5,0,1.1,0,1.6c0,0.2,0,0.3-0.1,0.5C8.4,5.1,8.1,5.2,7.8,5.2C7,5.2,6.1,5.2,5.2,5.2z"/>
</g>
</svg>
