<svg id="Capa_1" data-name="Capa 1" xmlns="http://www.w3.org/2000/svg" viewBox="0 0 19.61 7.24"><defs><style>.cls-1{fill:#157d35;}.cls-2{fill:#fff;}</style></defs><path class="cls-1" d="M1.91.92.12,5.13a1.52,1.52,0,0,0,1.4,2.11H16.31a1.53,1.53,0,0,0,1.39-.93l1.79-4.2A1.51,1.51,0,0,0,18.1,0H3.31A1.52,1.52,0,0,0,1.91.92Z"/><path class="cls-2" d="M3.26,5.31l.09-.12.9-1.29.26-.37s0,0,0,0l-.68-1L3.3,1.71h.52s0,0,0,0c.26.39.52.79.79,1.18,0,.09.11.18.17.27A1.3,1.3,0,0,0,4.92,3L5.8,1.73s0,0,0,0h.5l-.07.1c-.21.3-.42.59-.62.89l-.55.78s0,0,0,0l.7,1,.51.75,0,0H5.81s0,0,0,0L5,4.08,4.8,3.83l-.07.1-.8,1.18L3.8,5.3l0,0H3.26Z"/><path class="cls-2" d="M6.75,5.32V3.56H6l.08-.14.15-.25a.05.05,0,0,1,0,0h.46V1.7h0c.4,0,.81,0,1.21,0l.44,0a1,1,0,0,1,.48.19.66.66,0,0,1,.25.43.94.94,0,0,1,0,.41.75.75,0,0,1-.32.4.67.67,0,0,1-.11.07l0,0h0A1.45,1.45,0,0,1,9,3.37.85.85,0,0,1,9.47,4a1.22,1.22,0,0,1,0,.5,1,1,0,0,1-.35.5,1.26,1.26,0,0,1-.61.25,3.11,3.11,0,0,1-.43,0H6.75Zm.48-.41h.65l.46,0a.85.85,0,0,0,.37-.12A.53.53,0,0,0,9,4.36,1.37,1.37,0,0,0,9,4a.67.67,0,0,0-.07-.18.58.58,0,0,0-.32-.21,1.2,1.2,0,0,0-.38-.05h-1Zm0-2.8v1h.88a.63.63,0,0,0,.33-.09.41.41,0,0,0,.2-.25.74.74,0,0,0,0-.33.34.34,0,0,0-.19-.27l-.16-.06L8,2.11H7.23Z"/><path class="cls-2" d="M13.25,3.51a1.73,1.73,0,0,1-.32,1,1.85,1.85,0,0,1-.53.55,1.66,1.66,0,0,1-.81.3,1.92,1.92,0,0,1-1.7-.71,1.74,1.74,0,0,1-.35-.84,2,2,0,0,1,0-.55,1.53,1.53,0,0,1,.32-.79A2,2,0,0,1,10.41,2a1.61,1.61,0,0,1,.77-.26,2.07,2.07,0,0,1,.92.14,2.15,2.15,0,0,1,.56.34,1.69,1.69,0,0,1,.36.44,1.58,1.58,0,0,1,.21.7C13.24,3.38,13.24,3.45,13.25,3.51Zm-.51.07a1.45,1.45,0,0,0-.29-.92,1.25,1.25,0,0,0-.53-.41,1.52,1.52,0,0,0-.47-.1,1.33,1.33,0,0,0-.59.09,1.3,1.3,0,0,0-.43.29,1.38,1.38,0,0,0-.34.52,1.59,1.59,0,0,0,0,.78,1.5,1.5,0,0,0,.36.68,1.24,1.24,0,0,0,1.2.41,1.47,1.47,0,0,0,.66-.33,1.3,1.3,0,0,0,.38-.54A1.37,1.37,0,0,0,12.74,3.58Z"/><path class="cls-2" d="M16.35,5.32h-.53l0,0-.66-1-.3-.45v0a.83.83,0,0,0-.08.12L14,5l-.18.26,0,0h-.51l.1-.15.56-.8.57-.82s0,0,0-.08l-.62-.91-.56-.82,0,0h.53s0,0,0,0c.21.33.43.65.65,1,.09.15.19.29.29.43l0,0L14.91,3c.2-.28.39-.56.58-.85s.21-.31.32-.47l0,0h.51l0,.06-.48.68-.66,1-.05.08s0,0,0,0l.37.55c.18.25.35.51.53.77l.32.47Z"/></svg>