<?xml version="1.0" encoding="utf-8"?>
<!-- Generator: Adobe Illustrator 25.4.1, SVG Export Plug-In . SVG Version: 6.00 Build 0)  -->
<svg version="1.1" id="Capa_1" xmlns="http://www.w3.org/2000/svg" xmlns:xlink="http://www.w3.org/1999/xlink" x="0px" y="0px"
	 viewBox="0 0 157.7 157.7" style="enable-background:new 0 0 157.7 157.7;" xml:space="preserve">
<style type="text/css">
	.st0{fill:#E4241E;}
</style>
<g>
	<path class="st0" d="M113.8,28.9c16.5,1.1,32,6,39,26.9c4.5,13.4,4.5,28.6,4.9,43.3c0.2,6.2-3.3,11.6-7.4,15.4
		c-10.5,9.8-27.2,9.3-37-1.6c-4-4.5-8.2-7.1-13.4-8.6c-6.5-1.9-12.6-5.3-17.7-10.8c-2.1-2.4-3.5-2-5.3,0.6
		c-5.2,8.1-11.9,13.8-19.9,16.7c-2.4,0.9-3.3,3-4.3,5.5c-8.2,19.8-36.2,22-46.4,3.9c-1.3-2.2-2.1-4.7-2.5-7.3
		c-1.9-11.6-2.7-23.2-3.7-34.9c-0.9-10.9,3.2-19.5,9.6-26.6C18,42.1,28,37.8,38.8,36.7c24.2-2.9,48.4-5.3,72.5-7.8
		C112.2,28.8,113,28.9,113.8,28.9z M49.1,88.4c-1.5-6.3,1.3-8.2,5.7-8.5c1.5-0.1,3-0.2,4.5-0.4c6-0.5,6.5-1.6,4.9-8.8
		c-0.6-2.7-1.6-4-3.8-3.7c-2.8,0.4-5.6,0.6-8.5,0.9s-5.3-0.5-5.3-5.1c0-1.6-0.5-3.2-0.7-4.8c-0.8-6.3-4.7-4.5-7.7-4.4
		c-3.1,0.1-5.3,1.2-5.2,6.2C33.1,70,32.9,70,24.7,70.9c-0.7,0.1-1.3,0.2-2,0.2c-3.6,0.2-4.7,2.6-4.5,7c0.3,4.5,2,5.5,5.2,5.1
		c2.1-0.2,4.4,0.4,6.5-0.4c4.5-1.4,5.8,1,6.2,6.1c0.4,7.6,1.3,8,8,7.8C49.3,96.7,49.6,93.1,49.1,88.4z M111.7,59.3
		c4.5,0.1,9.3-4.6,9.3-9.2c-0.1-4.8-3.3-7.7-8.6-8c-5.7-0.1-9.6,2.9-9.7,7.7C102.5,54.6,106.9,59.2,111.7,59.3z M95.1,60.9
		c-4.3,0.1-9.1,4.6-9.3,8.6c-0.2,3.7,5.1,8.7,9.1,8.7c4.7,0,9.1-4.4,9-9.1C103.9,64.4,100.1,60.8,95.1,60.9z M132,57.2
		c-5.9,0-10.4,5.2-8.7,10.6c1.5,4.8,4.9,6.7,9.3,6c4.2-0.7,8.1-1.5,8.5-8.1C141.3,60.8,137.5,57.2,132,57.2z M115.6,76.7
		c-5.2-0.1-9.5,3.5-9.5,8.2c-0.1,4.4,4.3,8.6,9,8.6c4.5,0,9.5-4.6,9.5-8.8C124.5,79.7,121.5,77,115.6,76.7z"/>
</g>
</svg>
