<?xml version="1.0" encoding="utf-8"?>
<!-- Generator: Adobe Illustrator 25.4.1, SVG Export Plug-In . SVG Version: 6.00 Build 0)  -->
<svg version="1.1" id="Capa_1" xmlns="http://www.w3.org/2000/svg" xmlns:xlink="http://www.w3.org/1999/xlink" x="0px" y="0px"
	 viewBox="0 0 595 178" style="enable-background:new 0 0 595 178;" xml:space="preserve">
<style type="text/css">
	.st0{fill:#E4241E;}
	.st1{fill:#F6F6F5;}
</style>
<g>
	<path class="st0" d="M336.8,99.9c15.5,0.8,30,4.5,36.6,20.2c4.2,10.1,4.2,21.6,4.6,32.6c0.2,4.7-3.1,8.7-6.9,11.6
		c-9.8,7.4-25.5,7-34.7-1.2c-3.7-3.4-7.7-5.3-12.6-6.5c-6.1-1.4-11.8-4-16.6-8.2c-2-1.8-3.3-1.5-5,0.5c-4.9,6.1-11.2,10.4-18.7,12.6
		c-2.2,0.7-3.1,2.2-4,4.1c-7.7,14.9-33.9,16.6-43.5,2.9c-1.2-1.7-2-3.6-2.3-5.5c-1.8-8.7-2.5-17.5-3.5-26.3c-0.8-8.2,3-14.7,9-20.1
		c7.8-6.8,17.2-10,27.3-10.9c22.7-2.2,45.4-4,68-5.9C335.3,99.8,336.1,99.9,336.8,99.9z M276.1,144.8c-1.4-4.8,1.2-6.2,5.3-6.4
		c1.4-0.1,2.8-0.2,4.2-0.3c5.6-0.4,6.1-1.2,4.6-6.7c-0.6-2.1-1.5-3-3.6-2.8c-2.6,0.3-5.2,0.5-8,0.7c-2.7,0.2-5-0.4-5-3.8
		c0-1.2-0.5-2.4-0.7-3.7c-0.7-4.8-4.4-3.4-7.2-3.3c-2.9,0.1-5,0.9-4.9,4.7c0.1,7.7-0.1,7.7-7.8,8.3c-0.7,0.1-1.2,0.2-1.9,0.2
		c-3.4,0.2-4.4,2-4.2,5.2c0.3,3.4,1.9,4.1,4.9,3.8c2-0.2,4.1,0.3,6.1-0.3c4.2-1,5.4,0.7,5.8,4.6c0.4,5.7,1.2,6,7.5,5.9
		C276.3,151.1,276.6,148.4,276.1,144.8z M334.8,122.9c4.2,0.1,8.7-3.5,8.7-6.9c-0.1-3.7-3.1-5.8-8.1-6c-5.3-0.1-9,2.2-9.1,5.8
		C326.2,119.3,330.3,122.8,334.8,122.9z M319.3,124.1c-4,0.1-8.5,3.5-8.7,6.5c-0.2,2.8,4.8,6.6,8.5,6.6c4.4,0,8.5-3.3,8.4-6.8
		C327.5,126.7,324,124,319.3,124.1z M353.9,121.3c-5.5,0-9.7,3.9-8.2,8c1.4,3.7,4.6,5.1,8.7,4.5c3.9-0.6,7.6-1.1,8-6.1
		C362.6,124,359,121.3,353.9,121.3z M338.5,136c-4.9-0.1-8.9,2.6-8.9,6.2c-0.1,3.3,4,6.5,8.4,6.5c4.2,0,8.9-3.5,8.9-6.7
		C346.8,138.2,344,136.2,338.5,136z"/>
	<path class="st1" d="M57.7,5.1c15,0,30,0,45,0c2.8,0,4.9,0.1,4.4,3.8s2.3,3.5,4.6,3.3c4.1-0.5,5.7,1,5.3,5.3c-0.4,4.5-0.3,9,0,13.5
		c0.3,3.6-1.1,4.9-4.5,4.4c-4.3-0.7-5.7,1.3-5.1,5.3c0.2,1.1,0.2,2.3,0,3.5c-0.6,4.4,0.4,7.1,5.7,6.2c2.7-0.5,3.9,0.8,3.8,3.7
		c-0.2,5.2-0.3,10.3,0,15.5c0.2,3.3-1.2,4.1-4.1,3.8c-3.5-0.4-6.4-0.2-5.8,4.8c0.4,3.2-2.4,2.1-3.9,2.2c-16,1-32,0.9-47.9,0.9
		c-14.3,0-28.7-0.2-43-0.3c-2.1,0-4.2,0.2-4.3-3.2c-1-22.9-1.2-45.5-0.5-68.2c0.1-3.5,0.9-4.8,4.8-4.7C27.3,5.2,42.5,5.1,57.7,5.1z
		 M62.3,50.3c-1,0-2,0-3,0c-12.3,0-12.2,0-11.6,12.2c0.1,2.4,0.9,3.1,3.2,3.1c5.5-0.1,11,0.1,16.5-0.1c10-0.3,9.9-0.4,9.8-10.8
		c0-3.3-0.7-4.8-4.4-4.5C69.3,50.6,65.8,50.3,62.3,50.3z M62.3,35c1.3,0,2.7,0,4,0c11.6,0,11.6,0,10.8-11.6c0-0.2,0-0.3,0-0.5
		c0.2-2.1-0.6-2.9-2.8-2.8c-8,0.1-15.9,0.1-23.9,0c-1.4,0-2.3,0.1-2.6,2C46,33.5,47.2,35,58.4,35C59.7,35,61,35,62.3,35z"/>
	<path class="st1" d="M169.7,104.9c12.4,0,24.7,0.1,37,0c2.9,0,5,0.3,4.6,3.9c-0.4,3.4,2.2,3.4,4.3,3.1c3.6-0.5,4.4,0.8,4.5,4.3
		c0.6,18.2,0.7,36.5,0.4,54.7c-0.1,3.7-1.6,4.6-4.7,4.6c-9.7,0-19.3,0-29.1,0.1c-3.2,0.1-3.6-1.6-3.5-4.1c0.1-6.8-0.1-13.7,0.1-20.5
		c0.1-2.6-0.7-3.6-3.4-3.5c-7,0.2-14.1,0.2-21.1,0c-2.5-0.1-3.1,0.9-3.1,3.3c0.1,7-0.1,14.1,0.1,21c0.1,2.6-0.3,3.9-3.5,3.8
		c-9.9-0.2-20-0.2-30,0c-2.6,0-3.7-0.9-3.7-3.4c-0.5-19.1-0.9-38.3-0.2-57.5c0.1-2.8,1.7-3,3.7-2.8c3.5,0.4,5.8-0.1,5.4-4.5
		c-0.3-2.6,2-2.2,3.7-2.2c12.7,0,25.6,0,38.3,0C169.7,105.1,169.7,105,169.7,104.9z M169.5,119.3c-1.7,0-3.5,0-5.2,0
		c-9.5,0-10.1,0.8-8.8,10.5c0.3,2,0.7,3,3,3.2c7.5,0.4,14.9,0.7,22.4-0.4c1-0.2,2.2,0,2.2-1.7c-0.1-3.7,0.8-7.9-0.7-11
		c-1-2.1-5.4-0.5-8.3-0.7C172.6,119.2,171.1,119.3,169.5,119.3z"/>
	<path class="st1" d="M62.3,105.1c14.2,0,28.4,0.1,42.7-0.1c3.2,0,4.5,0.8,4.3,4.2c-0.6,10.3,2.5,9.9-9.9,9.9
		c-17.2-0.1-34.4,0-51.6-0.1c-2.7,0-3.4,0.8-3.4,3.4c0.1,11.7,0.1,23.4,0,35.2c0,2.6,0.7,3.5,3.4,3.4c6.8-0.2,13.8-0.2,20.6,0
		c2.7,0.1,3.3-0.9,3.3-3.5c0.1-10.1,0.2-10.1-9.8-10.1c-8.8,0-8.5,0-8.4-8.9c0-4.3,1.5-5.2,5.5-5.2c12.5,0.3,25,0.1,37.5,0.1
		c2.3,0,4.2,0.3,3.7,3.2c-0.7,3.6,1.5,4.2,4,3.7c3.7-0.7,4.8,1.2,4.8,4.3c0.1,6.7,0,13.4,0.2,20.2c0.1,2.9-1.3,3.8-3.9,3.7
		c-3.3-0.3-5.4,0.6-5.1,4.6c0.3,3.1-2.3,2.2-4,2.2c-15.5,0-30.9,0-46.4,0c-9.7,0-19.4,0-29.1,0c-2.6,0-4.6-0.1-4.3-3.7
		c0.4-3.7-2.6-3.5-4.8-3.2c-3,0.4-3.7-0.8-3.8-3.6c-1-16.2-0.6-32.4-0.5-48.7c0-3.4,1.3-4.8,4.8-4.3c2.2,0.3,4.7,0.4,4.3-3.1
		c-0.4-3.2,1.3-3.5,3.8-3.5c14.1,0.1,28.1,0,42.2,0C62.3,105.2,62.3,105.1,62.3,105.1z"/>
	<path class="st1" d="M545.5,5.1c15,0,30,0.1,45-0.1c3.6-0.1,4.4,1.1,4.3,4.5c-0.1,10.7,0,10.7-10.6,10.7c-18.2,0-36.3,0.1-54.5-0.1
		c-3.5,0-4.6,1.2-4.6,4.5c0.1,10.4,0,10.4,10.3,10.4c14.8,0,29.6,0.1,44.5,0c3.2,0,5.6,0,5.2,4.3c-0.4,3.3,2.1,4,4.6,3.6
		c4.7-0.8,5.5,1.4,5.3,5.5c-0.3,7-0.3,14,0,21c0.1,3.2-1.1,4.2-4,3.9c-4-0.5-6.5,0.3-6,5.2c0.3,2.7-2.2,1.9-3.6,1.9
		c-10,0.1-20,0-30,0c-20.3,0-40.6-0.1-61,0.1c-3.7,0-5.2-0.6-5.1-4.8c0.3-10.2,0-10.2,10.1-10.2c18.2,0,36.3-0.1,54.5,0.1
		c3.6,0,4.9-0.6,4.8-4.6c-0.2-10.9,0-10.8-10.9-10.6c-14.8,0.2-29.6,0.1-44.5,0.2c-2.4,0-4.6-0.2-4.2-3.3c0.5-4-1.7-4.6-4.7-4.1
		c-3.4,0.5-4.6-0.7-4.8-4.3c-0.4-7.3-0.7-14.6-0.3-21.9c0.2-3.5,1.3-5.3,5-4.6c3,0.5,5.3-0.1,4.8-4.1c-0.4-3.4,2.2-3,4.3-3
		C514.8,5.1,530.2,5.1,545.5,5.1z"/>
	<path class="st1" d="M548.9,105.2c14.1,0,28.1,0.1,42.2-0.1c3.1,0,3.9,0.8,3.9,3.8c0.2,9.9,0.3,9.9-9.5,9.9
		c-16.9,0-33.7,0.1-50.6-0.1c-3.5,0-4.9,0.7-4.9,4.5c0.1,9.7-0.1,9.7,9.6,9.7c13.9,0,27.7,0.1,41.7-0.1c3.1,0,4.8,0.7,4.4,4
		c-0.4,3.3,1.8,3.6,4.2,3.2c4-0.7,5.2,1.1,5,5c-0.3,6.6-0.2,13.1,0,19.7c0.1,2.9-0.8,4-3.7,3.7c-3.3-0.3-6,0.1-5.5,4.5
		c0.3,2.7-1.9,2.3-3.6,2.3c-8.2,0-16.2,0-24.4,0c-20,0-39.9-0.1-60,0.1c-3.2,0-4.7-0.4-4.6-4.2c0.2-9.8,0-9.8,10-9.9
		c16.7,0,33.4-0.1,50.2,0.1c3.4,0,4.6-0.6,4.5-4.3c-0.2-9.7,0-9.7-9.8-9.7c-13.8,0-27.5-0.1-41.2,0.1c-3.2,0-5.2-0.5-4.8-4.2
		c0.4-3.6-2.4-3.2-4.5-3c-3.7,0.4-4.5-1-4.3-4.4c0.3-6.7,0.2-13.4,0-20.2c-0.1-3.1,0.8-4.3,3.9-3.9c2.9,0.4,5.3,0.1,4.9-3.9
		c-0.4-3.4,2.2-2.6,4.1-2.7C520.5,105.2,534.6,105.2,548.9,105.2z"/>
	<path class="st1" d="M425.4,80.3c-15.2,0-30.3-0.1-45.5,0c-2.9,0-4.8-0.2-4.4-3.9c0.5-3.6-2.4-3.6-4.7-3.3
		c-4.3,0.6-5.2-1.2-5.1-5.3c0.2-17,0.2-33.9,0-50.9c0-3.5,0.5-5.5,4.5-4.9c3.6,0.6,5.7-0.4,5.3-4.7c-0.3-3.5,2.6-2.3,4.3-2.3
		c21-0.1,42,0,63,0c9.5,0,19,0.2,28.5-0.1c3.2-0.1,3.9,1.2,4.1,3.9c1,11.2,1.1,11.1-10,11.1c-18.5,0-37,0.1-55.5-0.1
		c-3.1,0-4.3,0.5-4.2,4c0.1,11.1-0.1,11.1,11.2,11.1c4.8,0,9.7,0.2,14.5-0.1c3.3-0.2,3.9,1.2,4.1,4c0.9,11.3,0.9,11.3-10.3,11.3
		c-5,0-10,0.2-15-0.1c-3.1-0.1-4.4,0.5-4.4,4c0,11-0.2,11,10.8,11c18,0,36,0.1,54-0.1c3.4,0,4.5,0.8,4.4,4.3
		c0,11.1,0.2,11.1-10.6,11.1C451.4,80.3,438.4,80.3,425.4,80.3z"/>
	<path class="st1" d="M437.2,105.2c13.9,0,27.7,0.1,41.7-0.1c3.2,0,4.6,0.5,4.5,4.3c-0.3,9.7-0.1,9.7-9.7,9.7
		c-16.9,0-33.7,0.1-50.6-0.1c-3.2,0-4.4,0.7-4.2,4.1c0.6,11-2.6,10,10.1,10.2c4.7,0,9.4,0,14.1,0c1.1,0,3-0.7,3.1,1.1
		c0.2,3.8,0.2,7.8-0.1,11.7c-0.1,1.8-2,1.1-3.1,1.1c-6.8,0.1-13.8,0.1-20.6,0c-2.5-0.1-3.5,0.5-3.6,3.3
		c-0.2,10.8-0.4,10.8,10.6,10.8c16.7,0,33.5,0.1,50.2-0.1c3.3,0,4.2,0.7,4.1,4.1c-0.2,9.7,0,9.9-9.9,10c-26.1,0.2-52.1,0.1-78.3,0.2
		c-3,0-5.2-0.2-4.8-4.2c0.4-3.4-2.4-3.1-4.6-2.9c-3.3,0.4-4.2-0.7-4.2-4c0.2-16,0.2-32.2,0-48.2c0-3.6,0.9-4.8,4.5-4.3
		c2.2,0.3,4.8,0.3,4.3-3.1c-0.4-3.3,1.4-3.6,3.9-3.5C408.8,105.3,423,105.3,437.2,105.2L437.2,105.2z"/>
	<path class="st1" d="M186.7,80.3c-5.5,0-11-0.1-16.5,0.1c-2.7,0.1-3.4-0.8-3.3-3.4c0.2-7.3-0.2-14.7,0.2-22c0.2-4.2-1.3-5.1-5-4.8
		c-3.8,0.3-7.7,0-11.5,0.1c-2.1,0-3.9-0.3-3.5-2.9c0.7-4.4-1.6-5.2-5.2-4.7c-3.5,0.5-5.5-0.6-4.9-4.5c0.5-3.8-2.4-3.4-4.6-3.2
		c-4.1,0.5-5.5-1-5.3-5.2c0.4-7.1,0.2-14.3,0-21.5c-0.1-2.5,0.7-3.6,3.2-3.6c11.5,0,23,0.1,34.4,0c2.3,0,2.1,1.5,2.1,3
		c0,5,0.2,10-0.1,15c-0.2,3.5,1,4.8,4.4,4.6c3.4-0.3,6.6-0.2,5.7,4.7c-0.4,2.3,1.3,2.3,2.9,2.3c3.7,0,7.3-0.1,11,0
		c3.4,0.1,6.3,0.3,5.8-4.7c-0.3-2.8,2.6-2.7,4.5-2.4c4.4,0.8,5.4-1.2,5.1-5.2c-0.3-4.5,0-9-0.1-13.5c-0.1-2.6,0.9-3.5,3.4-3.6
		c11.1-0.3,22.3-0.6,33.4-0.1c2.5,0.1,3.4,0.8,3.4,3.4c-0.2,7.6-0.2,15.3,0,23c0.1,2.8-0.8,4.1-3.7,3.7c-3.7-0.4-6.4-0.1-6.1,5
		c0.2,3.4-3.1,2.9-5.2,2.7c-3.2-0.3-5.3,0.2-4.7,4.1c0.4,2.8-1.3,3.3-3.6,3.3c-4.2-0.1-8.3,0.2-12.5,0c-3.1-0.1-3.9,1.1-3.9,4.1
		c0.2,7.5-0.1,15,0,22.5c0.1,2.9-0.8,3.7-3.7,3.6C197.7,80.2,192.2,80.3,186.7,80.3z"/>
	<path class="st1" d="M306.4,4.9c15,0,29.9,0.1,44.9-0.1c3.7,0,4.8,1.2,4.7,4.9c-0.3,10.3-0.1,10.4-10.4,10.4
		c-5.2,0-10.3,0.2-15.5-0.1c-3.5-0.2-4.1,1.2-4,4.3c0.1,17-0.1,33.9,0.2,50.9c0.1,4-0.6,5.4-5,5.3c-10.5-0.4-21-0.2-31.4-0.1
		c-3.1,0.1-3.9-0.8-3.9-3.9c0.2-17-0.1-33.9,0.2-50.9c0.1-4.9-1.7-5.8-5.9-5.7c-6.5,0.3-13-0.1-19.5,0.2c-3.4,0.2-4.1-1-4.1-4.1
		c0.1-10.8-0.1-10.9,10.8-11c13-0.1,25.9,0,38.9,0C306.4,5,306.4,4.9,306.4,4.9z"/>
	<path class="st1" d="M39.5-12.7c0.2,3.3-1.8,2.4-2.2,2.4C37.9-10.1,39.3-10.4,39.5-12.7z"/>
</g>
</svg>
