<?xml version="1.0" encoding="utf-8"?>
<!-- Generator: Adobe Illustrator 25.4.1, SVG Export Plug-In . SVG Version: 6.00 Build 0)  -->
<svg version="1.1" id="Capa_1" xmlns="http://www.w3.org/2000/svg" xmlns:xlink="http://www.w3.org/1999/xlink" x="0px" y="0px"
	 viewBox="0 0 1230 95.2" style="enable-background:new 0 0 1230 95.2;" xml:space="preserve">
<style type="text/css">
	.st0{fill:#E4241E;}
	.st1{fill:#F6F6F5;}
</style>
<g>
	<path class="st0" d="M954.6,12c16.5,0.9,32,4.8,39,21.6c4.5,10.8,4.5,23,4.9,34.8c0.2,5-3.3,9.3-7.4,12.4
		c-10.5,7.9-27.2,7.5-37-1.3c-4-3.6-8.2-5.7-13.4-6.9c-6.5-1.5-12.6-4.3-17.7-8.7c-2.1-1.9-3.5-1.6-5.3,0.5
		c-5.2,6.5-11.9,11.1-19.9,13.4c-2.4,0.7-3.3,2.4-4.3,4.4c-8.2,15.9-36.2,17.7-46.4,3.1c-1.3-1.8-2.1-3.8-2.5-5.9
		c-1.9-9.3-2.7-18.7-3.7-28.1c-0.9-8.8,3.2-15.7,9.6-21.4c8.3-7.3,18.3-10.7,29.1-11.6C903.8,16,928,14,952.1,12
		C953,11.9,953.8,12,954.6,12z M889.9,59.9c-1.5-5.1,1.3-6.6,5.7-6.8c1.5-0.1,3-0.2,4.5-0.3c6-0.4,6.5-1.3,4.9-7.1
		c-0.6-2.2-1.6-3.2-3.8-3c-2.8,0.3-5.6,0.5-8.5,0.7c-2.9,0.2-5.3-0.4-5.3-4.1c0-1.3-0.5-2.6-0.7-3.9c-0.8-5.1-4.7-3.6-7.7-3.5
		c-3.1,0.1-5.3,1-5.2,5c0.1,8.2-0.1,8.2-8.3,8.9c-0.7,0.1-1.3,0.2-2,0.2c-3.6,0.2-4.7,2.1-4.5,5.6c0.3,3.6,2,4.4,5.2,4.1
		c2.1-0.2,4.4,0.3,6.5-0.3c4.5-1.1,5.8,0.8,6.2,4.9c0.4,6.1,1.3,6.4,8,6.3C890.1,66.6,890.4,63.7,889.9,59.9z M952.5,36.5
		c4.5,0.1,9.3-3.7,9.3-7.4c-0.1-3.9-3.3-6.2-8.6-6.4c-5.7-0.1-9.6,2.3-9.7,6.2C943.3,32.7,947.7,36.4,952.5,36.5z M935.9,37.8
		c-4.3,0.1-9.1,3.7-9.3,6.9c-0.2,3,5.1,7,9.1,7c4.7,0,9.1-3.5,9-7.3C944.7,40.6,940.9,37.7,935.9,37.8z M972.8,34.8
		c-5.9,0-10.4,4.2-8.7,8.5c1.5,3.9,4.9,5.4,9.3,4.8c4.2-0.6,8.1-1.2,8.5-6.5C982.1,37.7,978.3,34.8,972.8,34.8z M956.4,50.5
		c-5.2-0.1-9.5,2.8-9.5,6.6c-0.1,3.5,4.3,6.9,9,6.9c4.5,0,9.5-3.7,9.5-7.1C965.3,52.9,962.3,50.7,956.4,50.5z"/>
	<path class="st1" d="M50.7,17.8c15,0,30,0,45,0c2.8,0,4.9,0.1,4.4,3.8c-0.5,3.7,2.3,3.5,4.6,3.3c4.1-0.5,5.7,1,5.3,5.3
		c-0.4,4.5-0.3,9,0,13.5c0.3,3.6-1.1,4.9-4.5,4.4c-4.3-0.7-5.7,1.3-5.1,5.3c0.2,1.1,0.2,2.3,0,3.5c-0.6,4.4,0.4,7.1,5.7,6.2
		c2.7-0.5,3.9,0.8,3.8,3.7c-0.2,5.2-0.3,10.3,0,15.5c0.2,3.3-1.2,4.1-4.1,3.8c-3.5-0.4-6.4-0.2-5.8,4.8c0.4,3.2-2.4,2.1-3.9,2.2
		c-16,1-32,0.9-47.9,0.9c-14.3,0-28.7-0.2-43-0.3c-2.1,0-4.2,0.2-4.3-3.2C-0.1,67.6-0.3,45,0.4,22.3c0.1-3.5,0.9-4.8,4.8-4.7
		C20.3,17.9,35.5,17.8,50.7,17.8z M55.3,63c-1,0-2,0-3,0C40,63,40.1,63,40.7,75.2c0.1,2.4,0.9,3.1,3.2,3.1c5.5-0.1,11,0.1,16.5-0.1
		c10-0.3,9.9-0.4,9.8-10.8c0-3.3-0.7-4.8-4.4-4.5C62.3,63.3,58.8,63,55.3,63z M55.3,47.7c1.3,0,2.7,0,4,0c11.6,0,11.6,0,10.8-11.6
		c0-0.2,0-0.3,0-0.5c0.2-2.1-0.6-2.9-2.8-2.8c-8,0.1-15.9,0.1-23.9,0c-1.4,0-2.3,0.1-2.6,2c-1.8,11.4-0.6,12.9,10.6,12.9
		C52.7,47.7,54,47.7,55.3,47.7z"/>
	<path class="st1" d="M776.3,17.3c13.2,0,26.3,0.1,39.5,0c3.1,0,5.3,0.3,4.9,4.2c-0.4,3.6,2.3,3.6,4.6,3.3c3.8-0.5,4.7,0.9,4.8,4.6
		c0.6,19.4,0.8,38.9,0.4,58.3c-0.1,3.9-1.7,4.9-5,4.9c-10.3,0-20.6,0-31,0.1c-3.4,0.1-3.8-1.7-3.7-4.4c0.1-7.3-0.1-14.6,0.1-21.9
		c0.1-2.8-0.7-3.8-3.6-3.7c-7.5,0.2-15,0.2-22.5,0c-2.7-0.1-3.3,1-3.3,3.5c0.1,7.5-0.1,15,0.1,22.4c0.1,2.8-0.3,4.2-3.7,4.1
		c-10.6-0.2-21.3-0.2-32,0c-2.8,0-3.9-1-3.9-3.6c-0.5-20.4-1-40.9-0.2-61.3c0.1-3,1.8-3.2,3.9-3c3.7,0.4,6.2-0.1,5.8-4.8
		c-0.3-2.8,2.1-2.4,3.9-2.4c13.6,0,27.3,0,40.9,0C776.3,17.5,776.3,17.4,776.3,17.3z M776.1,32.7c-1.8,0-3.7,0-5.5,0
		c-10.1,0-10.8,0.9-9.4,11.2c0.3,2.1,0.8,3.2,3.2,3.4c8,0.4,15.9,0.7,23.9-0.4c1.1-0.2,2.4,0,2.4-1.8c-0.1-3.9,0.9-8.4-0.7-11.7
		c-1.1-2.2-5.8-0.5-8.9-0.8C779.4,32.6,777.8,32.7,776.1,32.7z"/>
	<path class="st1" d="M661.8,17.5c15.2,0,30.3,0.1,45.5-0.1c3.4,0,4.8,0.9,4.6,4.5c-0.6,11,2.7,10.6-10.6,10.6
		c-18.3-0.1-36.7,0-55-0.1c-2.9,0-3.6,0.9-3.6,3.6c0.1,12.5,0.1,25,0,37.5c0,2.8,0.7,3.7,3.6,3.6c7.3-0.2,14.7-0.2,22,0
		c2.9,0.1,3.5-1,3.5-3.7c0.1-10.8,0.2-10.8-10.5-10.8c-9.4,0-9.1,0-9-9.5c0-4.6,1.6-5.6,5.9-5.5c13.3,0.3,26.7,0.1,40,0.1
		c2.5,0,4.5,0.3,3.9,3.4c-0.7,3.8,1.6,4.5,4.3,4c4-0.7,5.1,1.3,5.1,4.6c0.1,7.2,0,14.3,0.2,21.5c0.1,3.1-1.4,4.1-4.2,3.9
		c-3.5-0.3-5.8,0.6-5.4,4.9c0.3,3.3-2.5,2.4-4.3,2.4c-16.5,0-33,0-49.5,0c-10.3,0-20.7,0-31,0c-2.8,0-4.9-0.1-4.6-3.9
		c0.4-3.9-2.8-3.7-5.1-3.4c-3.2,0.4-3.9-0.9-4.1-3.8c-1.1-17.3-0.6-34.6-0.5-51.9c0-3.6,1.4-5.1,5.1-4.6c2.3,0.3,5,0.4,4.6-3.3
		c-0.4-3.4,1.4-3.7,4.1-3.7c15,0.1,30,0,45,0C661.8,17.7,661.8,17.6,661.8,17.5z"/>
	<path class="st1" d="M538.5,17.8c15,0,30,0.1,45-0.1c3.6-0.1,4.4,1.1,4.3,4.5c-0.1,10.7,0,10.7-10.6,10.7
		c-18.2,0-36.3,0.1-54.5-0.1c-3.5,0-4.6,1.2-4.6,4.5c0.1,10.4,0,10.4,10.3,10.4c14.8,0,29.6,0.1,44.5,0c3.2,0,5.6,0,5.2,4.3
		c-0.4,3.3,2.1,4,4.6,3.6c4.7-0.8,5.5,1.4,5.3,5.5c-0.3,7-0.3,14,0,21c0.1,3.2-1.1,4.2-4,3.9c-4-0.5-6.5,0.3-6,5.2
		c0.3,2.7-2.2,1.9-3.6,1.9c-10,0.1-20,0-30,0c-20.3,0-40.6-0.1-61,0.1c-3.7,0-5.2-0.6-5.1-4.8c0.3-10.2,0-10.2,10.1-10.2
		c18.2,0,36.3-0.1,54.5,0.1c3.6,0,4.9-0.6,4.8-4.6c-0.2-10.9,0-10.8-10.9-10.6c-14.8,0.2-29.6,0.1-44.5,0.2c-2.4,0-4.6-0.2-4.2-3.3
		c0.5-4-1.7-4.6-4.7-4.1c-3.4,0.5-4.6-0.7-4.8-4.3c-0.4-7.3-0.7-14.6-0.3-21.9c0.2-3.5,1.3-5.3,5-4.6c3,0.5,5.3-0.1,4.8-4.1
		c-0.4-3.4,2.2-3,4.3-3C507.8,17.8,523.2,17.8,538.5,17.8z"/>
	<path class="st1" d="M1180.8,17.7c15,0,30,0.1,45-0.1c3.3,0,4.2,0.9,4.2,4.1c0.2,10.6,0.3,10.6-10.1,10.6c-18,0-36,0.1-54-0.1
		c-3.7,0-5.2,0.7-5.2,4.8c0.1,10.3-0.1,10.3,10.2,10.3c14.8,0,29.6,0.1,44.5-0.1c3.3,0,5.1,0.7,4.7,4.3c-0.4,3.5,1.9,3.8,4.5,3.4
		c4.3-0.7,5.5,1.2,5.3,5.3c-0.3,7-0.2,14,0,21c0.1,3.1-0.9,4.3-4,4c-3.5-0.3-6.4,0.1-5.9,4.8c0.3,2.9-2,2.5-3.8,2.5
		c-8.7,0-17.3,0-26,0c-21.3,0-42.6-0.1-64,0.1c-3.4,0-5-0.4-4.9-4.5c0.2-10.5,0-10.5,10.7-10.6c17.8,0,35.6-0.1,53.5,0.1
		c3.6,0,4.9-0.6,4.8-4.6c-0.2-10.4,0-10.4-10.5-10.4c-14.7,0-29.3-0.1-44,0.1c-3.4,0-5.5-0.5-5.1-4.5c0.4-3.8-2.6-3.4-4.8-3.2
		c-3.9,0.4-4.8-1.1-4.6-4.7c0.3-7.1,0.2-14.3,0-21.5c-0.1-3.3,0.9-4.6,4.2-4.2c3.1,0.4,5.7,0.1,5.2-4.2c-0.4-3.6,2.4-2.8,4.4-2.9
		C1150.5,17.7,1165.6,17.7,1180.8,17.7z"/>
	<path class="st1" d="M418.4,93c-15.2,0-30.3-0.1-45.5,0c-2.9,0-4.8-0.2-4.4-3.9c0.5-3.6-2.4-3.6-4.7-3.3c-4.3,0.6-5.2-1.2-5.1-5.3
		c0.2-17,0.2-33.9,0-50.9c0-3.5,0.5-5.5,4.5-4.9c3.6,0.6,5.7-0.4,5.3-4.7c-0.3-3.5,2.6-2.3,4.3-2.3c21-0.1,42,0,63,0
		c9.5,0,19,0.2,28.5-0.1c3.2-0.1,3.9,1.2,4.1,3.9c1,11.2,1.1,11.1-10,11.1c-18.5,0-37,0.1-55.5-0.1c-3.1,0-4.3,0.5-4.2,4
		c0.1,11.1-0.1,11.1,11.2,11.1c4.8,0,9.7,0.2,14.5-0.1c3.3-0.2,3.9,1.2,4.1,4c0.9,11.3,0.9,11.3-10.3,11.3c-5,0-10,0.2-15-0.1
		c-3.1-0.1-4.4,0.5-4.4,4c0,11-0.2,11,10.8,11c18,0,36,0.1,54-0.1c3.4,0,4.5,0.8,4.4,4.3C468,93,468.2,93,457.4,93
		C444.4,93,431.4,93,418.4,93z"/>
	<path class="st1" d="M1061.7,17.7c14.8,0,29.6,0.1,44.5-0.1c3.4,0,4.9,0.5,4.8,4.6c-0.3,10.3-0.1,10.3-10.4,10.3
		c-18,0-36,0.1-54-0.1c-3.4,0-4.7,0.7-4.5,4.4c0.6,11.7-2.8,10.7,10.8,10.9c5,0,10,0,15,0c1.2,0,3.2-0.7,3.3,1.2
		c0.2,4.1,0.2,8.3-0.1,12.5c-0.1,1.9-2.1,1.2-3.3,1.2c-7.3,0.1-14.7,0.1-22,0c-2.7-0.1-3.7,0.5-3.8,3.5
		c-0.2,11.5-0.4,11.5,11.3,11.5c17.8,0,35.7,0.1,53.5-0.1c3.5,0,4.5,0.8,4.4,4.4c-0.2,10.4,0,10.6-10.6,10.7
		c-27.8,0.2-55.6,0.1-83.5,0.2c-3.2,0-5.6-0.2-5.1-4.5c0.4-3.6-2.6-3.3-4.9-3.1c-3.5,0.4-4.5-0.8-4.5-4.3c0.2-17.1,0.2-34.3,0-51.4
		c0-3.8,1-5.1,4.8-4.6c2.4,0.3,5.1,0.3,4.6-3.3c-0.4-3.5,1.5-3.8,4.2-3.7C1031.4,17.8,1046.6,17.8,1061.7,17.7
		C1061.7,17.7,1061.7,17.7,1061.7,17.7z"/>
	<path class="st1" d="M179.7,93c-5.5,0-11-0.1-16.5,0.1c-2.7,0.1-3.4-0.8-3.3-3.4c0.2-7.3-0.2-14.7,0.2-22c0.2-4.2-1.3-5.1-5-4.8
		c-3.8,0.3-7.7,0-11.5,0.1c-2.1,0-3.9-0.3-3.5-2.9c0.7-4.4-1.6-5.2-5.2-4.7c-3.5,0.5-5.5-0.6-4.9-4.5c0.5-3.8-2.4-3.4-4.6-3.2
		c-4.1,0.5-5.5-1-5.3-5.2c0.4-7.1,0.2-14.3,0-21.5c-0.1-2.5,0.7-3.6,3.2-3.6c11.5,0,23,0.1,34.4,0c2.3,0,2.1,1.5,2.1,3
		c0,5,0.2,10-0.1,15c-0.2,3.5,1,4.8,4.4,4.6c3.4-0.3,6.6-0.2,5.7,4.7c-0.4,2.3,1.3,2.3,2.9,2.3c3.7,0,7.3-0.1,11,0
		c3.4,0.1,6.3,0.3,5.8-4.7c-0.3-2.8,2.6-2.7,4.5-2.4c4.4,0.8,5.4-1.2,5.1-5.2c-0.3-4.5,0-9-0.1-13.5c-0.1-2.6,0.9-3.5,3.4-3.6
		c11.1-0.3,22.3-0.6,33.4-0.1c2.5,0.1,3.4,0.8,3.4,3.4c-0.2,7.6-0.2,15.3,0,23c0.1,2.8-0.8,4.1-3.7,3.7c-3.7-0.4-6.4-0.1-6.1,5
		c0.2,3.4-3.1,2.9-5.2,2.7c-3.2-0.3-5.3,0.2-4.7,4.1c0.4,2.8-1.3,3.3-3.6,3.3c-4.2-0.1-8.3,0.2-12.5,0c-3.1-0.1-3.9,1.1-3.9,4.1
		c0.2,7.5-0.1,15,0,22.5c0.1,2.9-0.8,3.7-3.7,3.6C190.7,92.9,185.2,93,179.7,93z"/>
	<path class="st1" d="M299.4,17.6c15,0,29.9,0.1,44.9-0.1c3.7,0,4.8,1.2,4.7,4.9c-0.3,10.3-0.1,10.4-10.4,10.4
		c-5.2,0-10.3,0.2-15.5-0.1c-3.5-0.2-4.1,1.2-4,4.3c0.1,17-0.1,33.9,0.2,50.9c0.1,4-0.6,5.4-5,5.3c-10.5-0.4-21-0.2-31.4-0.1
		c-3.1,0.1-3.9-0.8-3.9-3.9c0.2-17-0.1-33.9,0.2-50.9c0.1-4.9-1.7-5.8-5.9-5.7c-6.5,0.3-13-0.1-19.5,0.2c-3.4,0.2-4.1-1-4.1-4.1
		c0.1-10.8-0.1-10.9,10.8-11c13-0.1,25.9,0,38.9,0C299.4,17.7,299.4,17.6,299.4,17.6z"/>
	<path class="st1" d="M32.5,0c0.2,3.3-1.8,2.4-2.2,2.4C30.9,2.6,32.3,2.3,32.5,0z"/>
</g>
</svg>
