<svg id="Capa_1" data-name="Capa 1" xmlns="http://www.w3.org/2000/svg" viewBox="0 0 129.51 104.62"><defs><style>.cls-1{fill:#858584;}.cls-2,.cls-3{fill:#fff;}.cls-3{stroke:#fff;stroke-miterlimit:10;stroke-width:2px;}</style></defs><path class="cls-1" d="M114.46,103.77h.93c3,0,6.09,0,9.14,0,.35,0,1-.28,1,.36s-.66.42-1,.42q-30.86,0-61.71,0H1.06c-.24,0-.48,0-.72,0a.37.37,0,0,1-.34-.43.33.33,0,0,1,.31-.34,5.62,5.62,0,0,1,.82,0h84.2l17.56,0h.9c.09-.19.06-.24,0-.28-2.93-1.45-4.91-3.87-6.68-6.51a56.25,56.25,0,0,1-3.47-6.39c-1.12-2.26-2-4.61-3.08-6.91-.4-.87-.83-1.72-1.27-2.57a5.44,5.44,0,0,0-1-1.34c-.58-.6-.69-.54-1.26-.13a10.7,10.7,0,0,1-4.48,1.94,11.17,11.17,0,0,1-11.29-4.24,1.88,1.88,0,0,0-1.52-.8c-3.59-.15-7.18-.33-10.77-.5-1.12-.05-2.25-.07-3.38-.16a1.73,1.73,0,0,0-1.6.61,11.13,11.13,0,0,1-7.12,3.68A11.44,11.44,0,0,1,39,78.29c-.9-.6-.91-.59-1.66.23a8.93,8.93,0,0,0-1.45,2.35c-1,2.2-2,4.4-3.08,6.6a51,51,0,0,1-5.33,9.33A16.69,16.69,0,0,1,21.63,102,12.23,12.23,0,0,1,6.74,98.58a16,16,0,0,1-3.08-7.39,34.89,34.89,0,0,1-.09-9.52c1-9.59,3.37-18.9,5.92-28.16a93.53,93.53,0,0,1,4.16-12.22,62.64,62.64,0,0,1,7.7-12.55,3.43,3.43,0,0,1,1.89-1.17c.47-.14.78-.3.76-.88,0-.73.52-1.07,1.1-1.34a12.21,12.21,0,0,1,3.85-1,15.11,15.11,0,0,1,7.35.92,6.08,6.08,0,0,1,.92.46,1.91,1.91,0,0,1,.62.67c.22.36-.13,1,.27,1.13,1.24.46,1.8,1.76,3,2.31a6.67,6.67,0,0,0,2.59.53c3.38.16,6.77.3,10.15.45L81.72,32c1.4.06,2.81.12,4.21.15a4.12,4.12,0,0,0,3.48-1.41,1.36,1.36,0,0,1,.37-.35c.79-.37,1.42-.79,1.46-1.81,0-.43.59-.63,1-.8a11.52,11.52,0,0,1,3.7-.76,15.22,15.22,0,0,1,7.69,1.4c.76.38,1.45.82,1.31,1.84,0,.33.21.41.43.48a4.58,4.58,0,0,1,2.48,2.32,84.92,84.92,0,0,1,6.21,12.35,99.14,99.14,0,0,1,3.57,12.4C119,63.41,120.15,69,121,74.71a77,77,0,0,1,1.15,13.89,26.44,26.44,0,0,1-1,6.68,12.19,12.19,0,0,1-6.6,8.19C114.53,103.51,114.38,103.51,114.46,103.77ZM50.6,67.52c-.24.1-.32.35-.47.53a7.65,7.65,0,0,1-2.2,2,7.11,7.11,0,0,1-7.07,0,2.74,2.74,0,0,0-1-.52,2.14,2.14,0,0,0,.82,1,6.72,6.72,0,0,0,4.81,1.4,6.45,6.45,0,0,0,5.29-4.25,1.65,1.65,0,0,0,.14-.26c0-.09.06-.22-.06-.26s-.12.13-.16.21A.7.7,0,0,0,50.6,67.52Zm60.09-27.66c-1.17-2.36-2.5-4.63-3.82-6.91a3.19,3.19,0,0,0-1.57-1.4c-.48-.19-1-.36-1.45-.5a25.6,25.6,0,0,0-4.76-.73,37.38,37.38,0,0,0-6.26-.05,3.87,3.87,0,0,0-2.9,1.06,4.63,4.63,0,0,1-3.84,1.59c-1.2,0-2.39-.1-3.59-.15-1.56-.07-1.32-.26-1.38,1.3-.08,2.19-.14,4.38-.28,6.56A3.43,3.43,0,0,1,77.28,44a1.69,1.69,0,0,0-.77,0c.12.31.44.31.65.46s.37.42.19.7-.4.2-.63.08c-.61-.32-1.24-.59-1.83-.93a4.91,4.91,0,0,0-2.35-.59q-8.15-.32-16.3-.7a2.71,2.71,0,0,0-1.38.27c-1,.52-2.1,1-3.15,1.49-.3.14-.64.42-.88,0s.2-.63.51-.8.8-.39,1.19-.59c.19-.1.48-.09.52-.48-.56,0-1.1,0-1.64,0a3.51,3.51,0,0,1-3.65-4c.19-2.28.22-4.58.32-6.87,0-.74,0-.75-.66-.78-1.47-.07-2.94-.17-4.41-.2a4.68,4.68,0,0,1-3.71-1.66A4.34,4.34,0,0,0,36.47,28a45.52,45.52,0,0,0-8.81-.38,16.18,16.18,0,0,0-3.25.43,4.77,4.77,0,0,0-3.08,2c-1.46,2.1-3,4.16-4.27,6.37-.11.17-.39.32-.18.6a16.49,16.49,0,0,1,19.38-2.55A15.46,15.46,0,0,1,42.67,41a16.45,16.45,0,0,1,.64,13.2,2,2,0,0,0,1,.09,11.52,11.52,0,0,1,8.78,4,11.14,11.14,0,0,1,2.66,8.07c-.12,2.67-.23,5.33-.33,8,0,.71,0,.71.72.76l.62,0c4,.1,8.06.34,12.09.57a2.74,2.74,0,0,0,1.17,0,6.59,6.59,0,0,1-.15-2.12c.06-2.15.11-4.31.19-6.46a13.33,13.33,0,0,1,.29-2.44,11.11,11.11,0,0,1,10.84-8.78,9.86,9.86,0,0,1,2.38.24c-1.46-5.45-.77-10.39,2.63-14.84a2,2,0,0,0,.65-.78,15.94,15.94,0,0,1,11.7-5.29,15.45,15.45,0,0,1,11.93,4.92.83.83,0,0,0,.58.52A.92.92,0,0,0,110.69,39.86Zm-98.61,8a7.11,7.11,0,0,0-.64,1.65Q8.26,60.12,6,70.9c-.72,3.49-1.25,7-1.71,10.52A5.69,5.69,0,0,0,5.65,86a14.14,14.14,0,0,0,4.91,3.8A32.19,32.19,0,0,0,22.44,93a11.65,11.65,0,0,0,6.47-1.23,4.25,4.25,0,0,0,1.9-1.92c1.37-2.79,2.63-5.63,4-8.44a10.89,10.89,0,0,1,2.77-4.21,13.81,13.81,0,0,1-3.32-6.46,24.06,24.06,0,0,1-.57-7.24A16.36,16.36,0,0,1,12.08,47.91ZM88.35,78.72A11.16,11.16,0,0,1,91,82.85c1.31,2.89,2.64,5.77,3.95,8.66a3.16,3.16,0,0,0,1.18,1.38,9.93,9.93,0,0,0,5.22,1.59,31.18,31.18,0,0,0,11.86-2A15.44,15.44,0,0,0,119,89.18a6.93,6.93,0,0,0,2.35-6.34c-.43-2.91-.7-5.84-1.17-8.74-1.24-7.74-3-15.36-5-22.93-.06-.2-.06-.46-.34-.52-.27,5.62-2.61,10.15-7.31,13.22a15.71,15.71,0,0,1-15.09,1.4C92.64,70.28,91.57,74.76,88.35,78.72ZM28.28,63.51c.44,0,.89,0,1.33,0a12.69,12.69,0,0,0,4.07-.93c.51-.18.81-.44.64-1.06a4.18,4.18,0,0,1,0-1.12,6.48,6.48,0,0,1,7-6.37c.36,0,.76.34,1.08.08s.35-.73.48-1.11a4,4,0,0,0,.15-.49c1.53-6.11.14-11.41-4.61-15.61a15.35,15.35,0,0,0-18.64-1.22,15.14,15.14,0,0,0-6.56,15.76A15.32,15.32,0,0,0,28.28,63.51Zm71.18,2.25a14.7,14.7,0,0,0,12.29-7.37,14.53,14.53,0,0,0-7.6-21.47,15.19,15.19,0,0,0-14.34,2A15,15,0,0,0,84.3,55.74a1.26,1.26,0,0,0,.86.89,10.85,10.85,0,0,1,6.79,7,1.36,1.36,0,0,0,.84.92A17.31,17.31,0,0,0,99.46,65.76ZM80.4,32.68l-9.64-.4L58,31.73l-8.4-.31c-.46,0-.8,0-.79.6,0,.89-.08,1.78-.13,2.66-.07,1.47-.17,2.94-.22,4.41a2.75,2.75,0,0,0,2.85,3,18.06,18.06,0,0,1,1.95.08,4.64,4.64,0,0,0,3.24-.58,1.73,1.73,0,0,1,.37-.16c.41-.15.59,0,.58.44a4.2,4.2,0,0,1,0,.44l14.13.6c0-.24-.11-.29-.22-.36s-.45-.36-.27-.67.51-.23.8-.08c.64.32,1.29.63,1.92,1a2.38,2.38,0,0,0,1.07.32c.85,0,1.71.06,2.56,0a2.59,2.59,0,0,0,2.62-2.49C80.2,38.06,80.29,35.43,80.4,32.68ZM4.22,85.39a16.64,16.64,0,0,0,0,3.8A16.69,16.69,0,0,0,5.53,95a11.28,11.28,0,0,0,7.19,6.82,11.15,11.15,0,0,0,11.06-2.16,23.88,23.88,0,0,0,5-6.19c.12-.22.36-.4.29-.67a.4.4,0,0,0-.44,0,11.31,11.31,0,0,1-4.38.92,25.45,25.45,0,0,1-6.51-.66A31,31,0,0,1,9.3,90,14.25,14.25,0,0,1,4.22,85.39Zm92.2,8.75c.26.5.41.82.59,1.13a28.84,28.84,0,0,0,2.82,4A11.53,11.53,0,0,0,111,103.69a10.73,10.73,0,0,0,8.87-7,22.43,22.43,0,0,0,1.47-8.22c0-.21.14-.48-.23-.66a11.07,11.07,0,0,1-3.57,3.44,20.64,20.64,0,0,1-4.83,2.2,34.54,34.54,0,0,1-10.55,1.87A13.74,13.74,0,0,1,96.42,94.14ZM81.25,77.32A10.47,10.47,0,0,0,91.69,67,10.44,10.44,0,1,0,81.25,77.32ZM34.72,63c-1.29,3.76.6,8.53,4.21,11A10.29,10.29,0,0,0,54,61c-1.89-4.08-6.7-6.18-9.36-5.78A5,5,0,0,1,46,56.59a1.59,1.59,0,0,0,1,.69,6.05,6.05,0,0,1,3.25,2.38,9,9,0,0,1,1.69,7,7.33,7.33,0,0,1-12.59,3.69,7.8,7.8,0,0,1-1.87-3.6c-.07-.28,0-.63-.32-.83A7.42,7.42,0,0,1,34.72,63Zm6.05,3.2a5.72,5.72,0,1,0-5.71-5.8A5.6,5.6,0,0,0,40.77,66.19Zm30,4.92c0,1,0,1.73-.08,2.5a3.46,3.46,0,0,0,.61,2.31A10.21,10.21,0,0,0,81,81a9.91,9.91,0,0,0,9.09-6.73c.08-.19.25-.37.11-.64A11.34,11.34,0,0,1,70.73,71.11Zm-35.25.72a10.51,10.51,0,0,0,2.79,4.86,10.78,10.78,0,0,0,16-1.75,1.12,1.12,0,0,0,.25-.65c0-1.28.1-2.56.15-3.92A11.34,11.34,0,0,1,35.48,71.83Zm3.43-5A6.16,6.16,0,0,0,45.84,70a6.42,6.42,0,0,0,4.92-6.49c0-2.46-1.72-4.88-3.77-5.29.34,1,.25,2.09,1,3a3.5,3.5,0,0,1,.84,2.16,4.32,4.32,0,0,1-2.27,4.28,4.27,4.27,0,0,1-4.74-.19c-.26-.15-.45-.44-.8-.42A11.24,11.24,0,0,1,38.91,66.8Zm-8-41.7c-.52,0-1,0-1.54,0a11,11,0,0,0-3.94,1c-.32.15-.68.33-.53.75s.48.09.71.07a45.63,45.63,0,0,1,8.9-.05c.72.06,1.42.21,2.13.27.2,0,.43.07.51-.2a.45.45,0,0,0-.23-.52,4.47,4.47,0,0,0-1.09-.55A12.35,12.35,0,0,0,30.86,25.1Zm65.82,2.65a12.27,12.27,0,0,0-3.78.63,2,2,0,0,0-1,.53.47.47,0,0,0-.1.47c.07.22.25.17.42.15a42,42,0,0,1,9.7.3c.54.07,1.06.23,1.6.34.19,0,.42.13.52-.13s0-.39-.19-.54a3.12,3.12,0,0,0-1.06-.61A15.76,15.76,0,0,0,96.68,27.75ZM47.28,61.57a7.28,7.28,0,0,1-4.8,5.3A3.68,3.68,0,0,0,47.35,66,3.48,3.48,0,0,0,47.28,61.57Z"/><path class="cls-2" d="M66.69,0A8.53,8.53,0,0,1,75.5,8.66a8.2,8.2,0,0,1-3.25,6.52,16.78,16.78,0,0,1-2.53,1.63,4.25,4.25,0,0,0-2.48,4c0,.42,0,.85,0,1.27s.11.69-.3.79a2.46,2.46,0,0,1-1.26-.08c-.2-.07-.15-.33-.15-.52a14.13,14.13,0,0,1,.29-3.11,5.1,5.1,0,0,1,2.11-3.09c.9-.6,1.83-1.15,2.74-1.75a6.79,6.79,0,0,0,2.31-9.25,7.31,7.31,0,0,0-7.59-3.32,6.46,6.46,0,0,0-5.41,4.93c0,.18-.1.37-.16.55-.14.47-.49.56-.92.48a.73.73,0,0,1-.65-.82,4.34,4.34,0,0,1,.26-1.12A8.32,8.32,0,0,1,66.69,0Z"/><path class="cls-2" d="M67.45,27.17a1.18,1.18,0,0,1-1.2,1.25A1.21,1.21,0,0,1,65,27.19a1.19,1.19,0,0,1,1.2-1.26A1.22,1.22,0,0,1,67.45,27.17Z"/><path class="cls-1" d="M128.82,104.57c-.41,0-.72.05-.78-.33a.35.35,0,0,1,.13-.37,1.49,1.49,0,0,1,1.17,0,.33.33,0,0,1,.17.35.34.34,0,0,1-.23.3A4.6,4.6,0,0,1,128.82,104.57Z"/><path class="cls-2" d="M4.22,85.39A14.25,14.25,0,0,0,9.3,90a31,31,0,0,0,8.44,3.1,25.45,25.45,0,0,0,6.51.66,11.31,11.31,0,0,0,4.38-.92.4.4,0,0,1,.44,0c.07.27-.17.45-.29.67a23.88,23.88,0,0,1-5,6.19,11.15,11.15,0,0,1-11.06,2.16A11.28,11.28,0,0,1,5.53,95a16.69,16.69,0,0,1-1.29-5.78A16.64,16.64,0,0,1,4.22,85.39Z"/><path class="cls-2" d="M96.42,94.14a13.74,13.74,0,0,0,5.75,1.17,34.54,34.54,0,0,0,10.55-1.87,20.64,20.64,0,0,0,4.83-2.2,11.07,11.07,0,0,0,3.57-3.44c.37.18.23.45.23.66a22.43,22.43,0,0,1-1.47,8.22,10.73,10.73,0,0,1-8.87,7A11.53,11.53,0,0,1,99.83,99.3a28.84,28.84,0,0,1-2.82-4C96.83,95,96.68,94.64,96.42,94.14Z"/><path class="cls-2" d="M40.77,66.19a5.6,5.6,0,0,1-5.71-5.8,5.69,5.69,0,0,1,5.69-5.63,5.72,5.72,0,1,1,0,11.43Zm-4-5.24c-.27,0-.47.33-.35.69a4.35,4.35,0,0,0,2.29,2.59,1.52,1.52,0,0,0,.6.1.36.36,0,0,0,.37-.29.34.34,0,0,0-.25-.39,3.47,3.47,0,0,1-2.35-2.46A.39.39,0,0,0,36.81,61ZM40,55.87a4.34,4.34,0,0,0-2.87,1.69.43.43,0,0,0,0,.64c.25.21.46.07.6-.14a3,3,0,0,1,2.49-1.39c.24,0,.5-.09.49-.4S40.41,55.88,40,55.87ZM45.19,61c-.06-.27.11-.68-.33-.73s-.46.34-.47.64a2.9,2.9,0,0,1-1.06,2c-.22.2-.38.44-.13.69s.5,0,.7-.13A4.22,4.22,0,0,0,45.19,61Zm-.54-2.82a2.35,2.35,0,0,0-.11-.24,4.49,4.49,0,0,0-1.75-1.68.31.31,0,0,0-.45.08.37.37,0,0,0,0,.55A6.43,6.43,0,0,1,44,58.48a.35.35,0,0,0,.47,0A.38.38,0,0,0,44.65,58.13Z"/><path class="cls-2" d="M38.91,66.8a11.24,11.24,0,0,0,2.14.21c.35,0,.54.27.8.42a4.27,4.27,0,0,0,4.74.19,4.32,4.32,0,0,0,2.27-4.28A3.5,3.5,0,0,0,48,61.18c-.78-.86-.69-1.94-1-3,2,.41,3.74,2.83,3.77,5.29A6.42,6.42,0,0,1,45.84,70,6.16,6.16,0,0,1,38.91,66.8Z"/><path class="cls-2" d="M30.86,25.1a12.35,12.35,0,0,1,4.92.79,4.47,4.47,0,0,1,1.09.55.45.45,0,0,1,.23.52c-.08.27-.31.21-.51.2-.71-.06-1.41-.21-2.13-.27a45.63,45.63,0,0,0-8.9.05c-.23,0-.57.3-.71-.07s.21-.6.53-.75a11,11,0,0,1,3.94-1C29.83,25.06,30.34,25.1,30.86,25.1Z"/><path class="cls-2" d="M96.68,27.75a15.76,15.76,0,0,1,6.13,1.14,3.12,3.12,0,0,1,1.06.61c.16.15.28.32.19.54s-.33.16-.52.13c-.54-.11-1.06-.27-1.6-.34a42,42,0,0,0-9.7-.3c-.17,0-.35.07-.42-.15a.47.47,0,0,1,.1-.47,2,2,0,0,1,1-.53A12.27,12.27,0,0,1,96.68,27.75Z"/><path class="cls-2" d="M47.28,61.57A3.48,3.48,0,0,1,47.35,66a3.68,3.68,0,0,1-4.87.88A7.28,7.28,0,0,0,47.28,61.57Z"/><path class="cls-2" d="M50.75,67.64a6.47,6.47,0,0,1-5.3,4.25,6.72,6.72,0,0,1-4.81-1.4,2.14,2.14,0,0,1-.82-1,2.74,2.74,0,0,1,1,.52,7.11,7.11,0,0,0,7.07,0,7.65,7.65,0,0,0,2.2-2c.15-.18.23-.43.47-.53Z"/><path class="cls-2" d="M86.18,41.29c-.2-.14-.4,0-.6,0a4.61,4.61,0,0,0,1-1c0,.11.1.22.24.25A2,2,0,0,1,86.18,41.29Z"/><path class="cls-2" d="M110.46,40.14c.17,0,.2-.15.23-.28a.92.92,0,0,1,.35.8A.83.83,0,0,1,110.46,40.14Z"/><path class="cls-2" d="M50.6,67.52a.7.7,0,0,1,.06-.19c0-.08.12-.22.16-.21s.09.17.06.26a1.65,1.65,0,0,1-.14.26Z"/><path class="cls-2" d="M74.42,49a3.1,3.1,0,0,1-3.12,3.26A3.17,3.17,0,0,1,68,49a3.2,3.2,0,0,1,3.19-3.24A3.27,3.27,0,0,1,74.42,49Z"/><path class="cls-2" d="M59.26,48.42a3.21,3.21,0,1,1-6.42.09,3.21,3.21,0,1,1,6.42-.09Z"/><path class="cls-1" d="M62.44,72.55h3.28a2,2,0,0,1,1.08.26,1.27,1.27,0,0,1,.72,1.35c-.16.51-1,1.17-1.52,1A9.63,9.63,0,0,0,63.55,75c-1.5-.08-3-.14-4.51-.19a1.33,1.33,0,0,1-1.35-.9,1.2,1.2,0,0,1,1.16-1.63A17.31,17.31,0,0,1,62.44,72.55Zm2.51.72a1,1,0,0,0-.29-.08l-5.43-.09a1.79,1.79,0,0,0-.51.07.33.33,0,0,0-.22.31.38.38,0,0,0,.21.42,1.74,1.74,0,0,0,.5.08c1.61.12,3.21.22,4.82.21C64.82,74.18,64.82,74.18,65,73.27Zm1.2.18c-.15,0-.26,0-.26.11s0,.48.34.54a.22.22,0,0,0,.28-.2C66.56,73.59,66.33,73.51,66.15,73.45Z"/><path class="cls-1" d="M86.59,40.26a4.61,4.61,0,0,1-1,1A2,2,0,0,1,83,39c.08-.88.1-1.77.18-2.65a1.75,1.75,0,0,1,1.65-1.65,1.83,1.83,0,0,1,1.93,1.47,2.4,2.4,0,0,1,.07.6C86.73,38,86.66,39.11,86.59,40.26Zm-2.82-1.9a13.45,13.45,0,0,0,0,1.42,1.12,1.12,0,0,0,1.1.88.89.89,0,0,0,.93-.77A26.88,26.88,0,0,0,86,36.54a1,1,0,0,0-1-1,.93.93,0,0,0-1,.91A10.41,10.41,0,0,0,83.77,38.36Z"/><path class="cls-1" d="M42,36.47c0-.55,0-1.1.09-1.64a1.81,1.81,0,0,1,1.76-1.67,1.79,1.79,0,0,1,1.78,1.64,25.1,25.1,0,0,1-.11,3.47,1.7,1.7,0,0,1-1.93,1.43,1.66,1.66,0,0,1-1.66-1.6c0-.54,0-1.09,0-1.64Zm.71.19c0,.37,0,.74,0,1.12,0,.75.35,1.12,1,1.14s1-.34,1.05-1.08a19.86,19.86,0,0,1,.16-2.44,1.47,1.47,0,0,0,0-.51,1,1,0,0,0-1-1c-.56,0-.87.26-1,.9A10.2,10.2,0,0,0,42.69,36.66Z"/><path class="cls-3" d="M62.47,58.32A6.93,6.93,0,0,1,67.07,60a6.54,6.54,0,0,1,.74.84.57.57,0,0,1-.1.87c-.34.28-.58.11-.82-.17a5.68,5.68,0,0,0-4.68-1.89,6.33,6.33,0,0,0-3.54,1.25,6.7,6.7,0,0,1-.68.51.52.52,0,0,1-.65-.11.61.61,0,0,1-.09-.66,2,2,0,0,1,.66-.72A7.48,7.48,0,0,1,62.47,58.32Z"/><path class="cls-2" d="M56.16,55.28a8.25,8.25,0,0,1-4.51-1.12,1.66,1.66,0,0,1-.67-.59.47.47,0,0,1,.07-.59.41.41,0,0,1,.47-.13c.23.11.44.26.66.39a6.86,6.86,0,0,0,7.11-.11c.15-.09.28-.2.43-.3a.45.45,0,0,1,.67.12.47.47,0,0,1-.06.69,4.11,4.11,0,0,1-.82.62A7.85,7.85,0,0,1,56.16,55.28Z"/><path class="cls-2" d="M71.67,55.76a8.29,8.29,0,0,1-4.58-1.55,2.14,2.14,0,0,1-.46-.44.54.54,0,0,1,.06-.71.5.5,0,0,1,.6-.08,2.26,2.26,0,0,1,.31.23c2.22,1.69,4.62,1.68,7.12.76.42-.16,1-.61,1.22,0s-.44.81-.87,1A9.62,9.62,0,0,1,71.67,55.76Z"/><path class="cls-1" d="M25.24,41.33c0-.4,0-1,0-1.63.05-.91.5-1.42,1.41-1.41,1.47,0,2.94.13,4.4.3a1.39,1.39,0,0,1,1.29,1.74,32.53,32.53,0,0,0-.28,3.27,1.45,1.45,0,0,1-.49,1.09c-.76.68-1.51,1.38-2.31,2s-1.16.51-1.78-.16-1.2-1.4-1.82-2.09a1.86,1.86,0,0,1-.51-1.59C25.22,42.44,25.21,42,25.24,41.33Zm2.33-2.24c-1.44,0-1.51,0-1.54,1.3a16.68,16.68,0,0,1-.11,2.45,1,1,0,0,0,.16.78,20.41,20.41,0,0,0,2,2.42c.19.19.42.27.63.08.77-.68,1.53-1.36,2.28-2a1.11,1.11,0,0,0,.24-.77c.1-1,.2-2,.28-3,.05-.61-.2-.9-.91-1C29.55,39.22,28.46,39.23,27.57,39.09Z"/><path class="cls-1" d="M31.38,55c0,.61,0,1.23,0,1.84a1.42,1.42,0,0,1-1.5,1.49,41,41,0,0,1-4.29-.3,1.43,1.43,0,0,1-1.32-1.74c.07-1.06.17-2.11.24-3.17A1.6,1.6,0,0,1,25,51.93c.75-.65,1.47-1.34,2.23-2a1.18,1.18,0,0,1,2,.12c.65.7,1.26,1.44,1.9,2.15a1.64,1.64,0,0,1,.42,1.32c-.05.48-.07,1-.1,1.44Zm-.78,0c.07-2,.07-2-1.3-3.6-.16-.18-.3-.38-.46-.55-.53-.59-.79-.63-1.37-.11s-1.23,1.18-1.85,1.77a1.08,1.08,0,0,0-.36.81c0,.93-.12,1.84-.21,2.75s.1,1.13,1,1.22c1.19.13,2.39.1,3.58.21.69.07,1-.26,1-1C30.62,56,30.6,55.49,30.6,55Z"/><path class="cls-1" d="M21.53,51.37c-.54,0-1.09,0-1.63,0a1.62,1.62,0,0,1-1.64-1.73c0-1.33.12-2.66.25-4,.11-1,.62-1.4,1.67-1.33s2.25.18,3.37.23a1.52,1.52,0,0,1,1.17.51c.67.77,1.37,1.52,2,2.32s.53,1-.14,1.66-1.38,1.21-2.06,1.84a2,2,0,0,1-1.77.57c-.41-.06-.82-.05-1.23-.07Zm0-.83v.06H23a1.23,1.23,0,0,0,.87-.24L26,48.55a.52.52,0,0,0,.05-.87c-.57-.63-1.13-1.27-1.7-1.91a1.45,1.45,0,0,0-1.08-.51,28.58,28.58,0,0,1-3.06-.2c-.58-.08-.85.16-.89.74a30.16,30.16,0,0,0-.22,3.68c0,.74.25,1,1,1.05C20.54,50.58,21.05,50.54,21.57,50.54Z"/><path class="cls-1" d="M35.15,45.22c.55,0,1.1,0,1.64,0,1,0,1.54.52,1.53,1.43a43.14,43.14,0,0,1-.29,4.4c-.1.9-.57,1.25-1.47,1.22-1.09,0-2.18-.14-3.27-.19A1.86,1.86,0,0,1,32,51.44c-.67-.74-1.36-1.46-2-2.21s-.6-1.17.14-1.83,1.32-1.09,1.95-1.66a2.14,2.14,0,0,1,1.78-.58,11.8,11.8,0,0,0,1.33,0Zm.08,6.21h1.33c.4,0,.69-.2.72-.59.1-1.36.19-2.72.23-4.08,0-.48-.33-.73-.81-.74A8,8,0,0,1,34.86,46a3.27,3.27,0,0,0-3.27,1.19l-.15.13c-1.26,1.11-1.18,1-.17,2.33A4.13,4.13,0,0,0,35.23,51.43Z"/><path class="cls-2" d="M39.71,47.05a10.58,10.58,0,0,1,2.36,2,12.8,12.8,0,0,1-2.62,1.78Z"/><path class="cls-2" d="M17,45.78l-.27,3.73a7.9,7.9,0,0,1-2.06-1.7.33.33,0,0,1,.08-.53Z"/><path class="cls-2" d="M30.82,37.15a17.1,17.1,0,0,1-3.71-.22l1.69-2c.2-.24.42-.2.59.05C29.85,35.65,30.3,36.35,30.82,37.15Z"/><path class="cls-2" d="M26,59.46a18.14,18.14,0,0,1,3.56.2,12.1,12.1,0,0,1-1.68,2c-.13.17-.31.11-.43,0A12.15,12.15,0,0,1,26,59.46Z"/><path class="cls-1" d="M107.91,46.62a4.3,4.3,0,0,1,4.37,4.22,4.42,4.42,0,0,1-4.35,4.39,4.31,4.31,0,0,1-4.32-4.39A4.12,4.12,0,0,1,107.91,46.62Zm0,.72a3.4,3.4,0,0,0-3.48,3.53,3.53,3.53,0,0,0,3.48,3.58,3.56,3.56,0,1,0,0-7.11Z"/><path class="cls-1" d="M98.3,63.49A4.29,4.29,0,0,1,94,59.15a4.21,4.21,0,0,1,4.24-4.23,4.29,4.29,0,1,1,0,8.57Zm2.42-1.94a3.1,3.1,0,0,0,0-4.74,3.14,3.14,0,0,0-4.47-.42,3.29,3.29,0,0,0-1,4.35c.11.2.2.47.53.3-.09.27.09.38.29.47a.36.36,0,0,0,.12.36A3.16,3.16,0,0,0,100.72,61.55Z"/><path class="cls-1" d="M89.38,46.21a4.23,4.23,0,0,1,4.2,4.17,4.26,4.26,0,1,1-8.52.07A4.18,4.18,0,0,1,89.38,46.21Zm2.35,1.92,0,0,0,0a3.13,3.13,0,0,0-4.49-.38s0,.06,0,.1a.31.31,0,0,0-.13.06,2.7,2.7,0,0,0-1.17,1.92,2.66,2.66,0,0,0,.88,2.81v0a2.18,2.18,0,0,0,2,1.3,2.57,2.57,0,0,0,2.8-1.07l.21-.26A3,3,0,0,0,91.73,48.13Z"/><path class="cls-1" d="M98.83,46.28a4.25,4.25,0,0,1,0-8.49,4.25,4.25,0,0,1,4.33,4.26A4.19,4.19,0,0,1,98.83,46.28Zm.06-7.68a3.43,3.43,0,1,0,0,6.85,3.43,3.43,0,1,0,0-6.85Z"/><path class="cls-1" d="M88.72,66.48a7.45,7.45,0,1,1-14.51-2c.17-.55.36-1.1.57-1.64a7.13,7.13,0,0,1,13.67,1.27A9.39,9.39,0,0,1,88.72,66.48ZM75.14,65.33a6.27,6.27,0,0,0,6.27,6.37,6.45,6.45,0,0,0,6.41-6.41,6.34,6.34,0,0,0-12.68,0ZM86.91,70a7.41,7.41,0,0,1-6.16,2.49A7.12,7.12,0,0,1,75.21,69c.32,2.06,2.56,4.35,5.79,4.5C83.3,73.6,86.12,72.33,86.91,70Z"/><path class="cls-1" d="M36.81,61a.39.39,0,0,1,.31.24,3.47,3.47,0,0,0,2.35,2.46.34.34,0,0,1,.25.39.36.36,0,0,1-.37.29,1.52,1.52,0,0,1-.6-.1,4.35,4.35,0,0,1-2.29-2.59C36.34,61.28,36.54,60.94,36.81,61Z"/><path class="cls-1" d="M40,55.87c.45,0,.75,0,.76.4s-.25.39-.49.4a3,3,0,0,0-2.49,1.39c-.14.21-.35.35-.6.14a.43.43,0,0,1,0-.64A4.34,4.34,0,0,1,40,55.87Z"/><path class="cls-1" d="M45.19,61a4.22,4.22,0,0,1-1.29,2.48c-.2.18-.44.4-.7.13s-.09-.49.13-.69a2.9,2.9,0,0,0,1.06-2c0-.3,0-.68.47-.64S45.13,60.68,45.19,61Z"/><path class="cls-1" d="M44.65,58.13a.38.38,0,0,1-.17.38.35.35,0,0,1-.47,0,6.43,6.43,0,0,0-1.65-1.64.37.37,0,0,1,0-.55.31.31,0,0,1,.45-.08,4.49,4.49,0,0,1,1.75,1.68A2.35,2.35,0,0,1,44.65,58.13Z"/><path class="cls-1" d="M65,73.27c-.13.91-.13.91-.92.92-1.61,0-3.21-.09-4.82-.21a1.74,1.74,0,0,1-.5-.08.38.38,0,0,1-.21-.42.33.33,0,0,1,.22-.31,1.79,1.79,0,0,1,.51-.07l5.43.09A1,1,0,0,1,65,73.27Z"/><path class="cls-1" d="M66.15,73.45c.18.06.41.14.36.45a.22.22,0,0,1-.28.2c-.29-.06-.34-.3-.34-.54S66,73.42,66.15,73.45Z"/><path class="cls-2" d="M83.77,38.36a10.41,10.41,0,0,1,.17-1.93.93.93,0,0,1,1-.91,1,1,0,0,1,1,1,26.88,26.88,0,0,1-.19,3.35.89.89,0,0,1-.93.77,1.12,1.12,0,0,1-1.1-.88A13.45,13.45,0,0,1,83.77,38.36Z"/><path class="cls-2" d="M42.69,36.66a10.2,10.2,0,0,1,.15-1.83c.17-.64.48-.92,1-.9a1,1,0,0,1,1,1,1.47,1.47,0,0,1,0,.51,19.86,19.86,0,0,0-.16,2.44c0,.74-.4,1.1-1.05,1.08s-1-.39-1-1.14C42.68,37.4,42.69,37,42.69,36.66Z"/><path class="cls-2" d="M27.57,39.09c.89.14,2,.13,3.07.21.71.05,1,.34.91,1-.08,1-.18,2-.28,3a1.11,1.11,0,0,1-.24.77c-.75.69-1.51,1.37-2.28,2-.21.19-.44.11-.63-.08a20.41,20.41,0,0,1-2-2.42,1,1,0,0,1-.16-.78A16.68,16.68,0,0,0,26,40.39C26.06,39.13,26.13,39.06,27.57,39.09Z"/><path class="cls-2" d="M30.6,55c0,.51,0,1,0,1.53,0,.71-.32,1-1,1-1.19-.11-2.39-.08-3.58-.21-.86-.09-1.06-.34-1-1.22s.21-1.82.21-2.75a1.08,1.08,0,0,1,.36-.81c.62-.59,1.21-1.2,1.85-1.77s.84-.48,1.37.11c.16.17.3.37.46.55C30.67,53,30.67,53,30.6,55Z"/><path class="cls-2" d="M21.57,50.54c-.52,0-1,0-1.54,0-.72-.06-.93-.31-1-1.05a30.16,30.16,0,0,1,.22-3.68c0-.58.31-.82.89-.74a28.58,28.58,0,0,0,3.06.2,1.45,1.45,0,0,1,1.08.51c.57.64,1.13,1.28,1.7,1.91a.52.52,0,0,1-.05.87l-2.09,1.81a1.23,1.23,0,0,1-.87.24H21.57Z"/><path class="cls-2" d="M35.23,51.43a4.13,4.13,0,0,1-4-1.83c-1-1.29-1.09-1.22.17-2.33l.15-.13A3.27,3.27,0,0,1,34.86,46,8,8,0,0,0,36.7,46c.48,0,.83.26.81.74,0,1.36-.13,2.72-.23,4.08,0,.39-.32.58-.72.59Z"/><path class="cls-2" d="M107.86,47.34a3.56,3.56,0,1,1,0,7.11,3.53,3.53,0,0,1-3.48-3.58A3.4,3.4,0,0,1,107.86,47.34Z"/><path class="cls-2" d="M95.77,61c-.33.17-.42-.1-.53-.3a3.29,3.29,0,0,1,1-4.35,3.14,3.14,0,0,1,4.47.42l-.14.14c-.35,0-.54.26-.76.46s-.66.6-1,.93-.6.36-.93,0-.79-.84-1.2-1.25c-.11-.12-.25-.29-.42-.13s0,.33.08.45c.42.44.84.9,1.28,1.32s.26.48,0,.73C97,60,96.38,60.51,95.77,61Z"/><path class="cls-2" d="M100.72,61.55a3.16,3.16,0,0,1-4.54.32.36.36,0,0,1-.12-.36,9.46,9.46,0,0,1,.74-.68c.54-.4,1-1.2,1.58-1.15s.92.81,1.37,1.27c.23.23.4.57.82.45Z"/><path class="cls-2" d="M100.72,56.81a3.1,3.1,0,0,1,0,4.74l-.15-.15a.6.6,0,0,0-.22-.53c-.43-.43-.84-.88-1.28-1.3s-.29-.55,0-.83.76-.67,1.13-1c.23-.2.46-.41.34-.77Z"/><path class="cls-2" d="M86.81,52.66a27.41,27.41,0,0,1,4.79.23A2.57,2.57,0,0,1,88.8,54,2.18,2.18,0,0,1,86.81,52.66Z"/><path class="cls-2" d="M87.09,47.91c-.1,1.57-.19,3.15-.29,4.73a2.66,2.66,0,0,1-.88-2.81A2.7,2.7,0,0,1,87.09,47.91Z"/><path class="cls-2" d="M91.73,48.13l-3.85-.07a.88.88,0,0,1-.66-.21s0-.08,0-.1A3.13,3.13,0,0,1,91.73,48.13Z"/><path class="cls-2" d="M91.81,52.63a9.56,9.56,0,0,1-.08-2.39c0-.7,0-1.41,0-2.11A3,3,0,0,1,91.81,52.63Z"/><path class="cls-2" d="M98.89,38.6a3.43,3.43,0,1,1,0,6.85,3.43,3.43,0,1,1,0-6.85Z"/><path class="cls-2" d="M89.19,47a3.43,3.43,0,1,1,0,6.85,3.43,3.43,0,1,1,0-6.85Z"/><path class="cls-2" d="M89.31,47.23a3.43,3.43,0,1,1,0,6.85,3.43,3.43,0,1,1,0-6.85Z"/><path class="cls-2" d="M98.3,55.76a3.42,3.42,0,1,1,0,6.83,3.42,3.42,0,1,1,0-6.83Z"/><path class="cls-2" d="M75.14,65.33a6.34,6.34,0,0,1,12.68,0,6.45,6.45,0,0,1-6.41,6.41A6.27,6.27,0,0,1,75.14,65.33Zm5.53,4.41c2.47-.09,3.88-.8,4.72-2.39a4.28,4.28,0,0,0-.28-4.75,3.83,3.83,0,0,0-3.48-1.8c-.28,0-.6,0-.64.36s.3.38.56.41a1.67,1.67,0,0,0,.31,0,3.67,3.67,0,0,1,3.07,5A3.79,3.79,0,0,1,80.76,69a3.64,3.64,0,0,1-3-3.85,3.72,3.72,0,0,1,1.68-3c.19-.13.48-.26.28-.55s-.41-.22-.64-.07a5.57,5.57,0,0,0-.59.4,4.42,4.42,0,0,0-1.23,4.94C77.74,68.2,79.49,69.82,80.67,69.74Z"/><path class="cls-2" d="M86.91,70c-.79,2.35-3.61,3.62-5.91,3.51-3.23-.15-5.47-2.44-5.79-4.5a7.12,7.12,0,0,0,5.54,3.48A7.41,7.41,0,0,0,86.91,70Z"/><path class="cls-2" d="M89.25,48.85h1.33c.44,0,.59.2.57.62,0,.75,0,1.5,0,2.24,0,.42-.13.64-.58.61-.88-.07-1.77-.12-2.65-.17-.3,0-.42-.18-.41-.46,0-.85.08-1.7.11-2.55,0-.29.14-.43.45-.4s.81,0,1.22.07Z"/><path class="cls-1" d="M80.67,69.74c-1.18.08-2.93-1.54-3.39-2.92a4.42,4.42,0,0,1,1.23-4.94,5.57,5.57,0,0,1,.59-.4c.23-.15.48-.17.64.07s-.09.42-.28.55a3.72,3.72,0,0,0-1.68,3,3.64,3.64,0,0,0,3,3.85,3.79,3.79,0,0,0,4.17-2.41,3.67,3.67,0,0,0-3.07-5,1.67,1.67,0,0,1-.31,0c-.26,0-.61,0-.56-.41s.36-.35.64-.36a3.83,3.83,0,0,1,3.48,1.8,4.28,4.28,0,0,1,.28,4.75C84.55,68.94,83.14,69.65,80.67,69.74Z"/><path class="cls-2" d="M56.91,41.47l-6,2.75a.46.46,0,0,0,.39.79l6.14-2.66a.56.56,0,0,0,.16-.74A.47.47,0,0,0,56.91,41.47Z"/><path class="cls-2" d="M71.53,41.51l6,3.27a.47.47,0,0,1,.07.63c-.25.33-.51.21-.51.21l-6.2-3.17a.62.62,0,0,1-.13-.82A.46.46,0,0,1,71.53,41.51Z"/></svg>