<svg id="Capa_1" data-name="Capa 1" xmlns="http://www.w3.org/2000/svg" viewBox="0 0 241.1 241.1"><defs><style>.cls-1{fill:#fff;}</style></defs><path class="cls-1" d="M120.74,120.1q0-51.49,0-103C120.75,5.67,126.45,0,137.94,0h86c11.39,0,17.18,5.8,17.18,17.18q0,103.23,0,206.46c0,11.68-5.78,17.44-17.5,17.44H138.12c-11.6,0-17.37-5.82-17.38-17.51Q120.73,171.83,120.74,120.1Zm60.27-60c12.14,0,24.28,0,36.42,0,5.26,0,8.33-2.66,8.48-7.07s-3.12-7.72-8.46-7.74q-36.42-.1-72.84,0c-5.47,0-8.65,2.92-8.66,7.49,0,4.73,3,7.31,8.64,7.33C156.73,60.11,168.87,60.08,181,60.08Zm-.42-30c12.14,0,24.28,0,36.42,0,5.48,0,8.78-2.78,8.91-7.23.12-4.64-3.32-7.62-9-7.62q-35.93,0-71.84,0c-5.94,0-9.19,2.75-9.1,7.49s3.17,7.34,9.2,7.36C157,30.1,168.78,30.07,180.59,30.07ZM143,225.86a7.83,7.83,0,0,0,7.76-7,7.37,7.37,0,0,0-6.86-7.72,7.18,7.18,0,0,0-7.9,7.1A7.48,7.48,0,0,0,143,225.86Zm30.65-14.75a7.11,7.11,0,0,0-7.57,6.8,7.49,7.49,0,0,0,7.12,8,7.82,7.82,0,0,0,7.69-7.51A7.33,7.33,0,0,0,173.6,211.11Z"/><path class="cls-1" d="M105.48,30.08V45c-1.79.09-3.54.26-5.29.26h-74c-8.42,0-10.82,2.34-10.83,10.59q0,49.5,0,99c0,8.62,2,10.66,10.57,10.66,24.67,0,49.33.1,74-.08,4.38,0,6.08.89,6,5.72-.31,16.66-.24,33.34,0,50,0,4-1.17,5.27-5.11,5-5.32-.3-10.66,0-16-.09-5.77-.07-9.2-2.93-9.24-7.57,0-4.87,3.06-7.5,9-7.59,1.79,0,3.58,0,5.68,0V181H84.66q-29.51,0-59,0C9.53,180.93.07,171.64,0,155.62Q0,105.13,0,54.62c0-15.11,9.62-24.53,24.77-24.54h80.67Z"/></svg>