<?xml version="1.0" encoding="utf-8"?>
<!-- Generator: Adobe Illustrator 25.4.1, SVG Export Plug-In . SVG Version: 6.00 Build 0)  -->
<svg version="1.1" id="Layer_1" xmlns="http://www.w3.org/2000/svg" xmlns:xlink="http://www.w3.org/1999/xlink" x="0px" y="0px"
	 viewBox="0 0 1834.4 148.4" style="enable-background:new 0 0 1834.4 148.4;" xml:space="preserve">
<style type="text/css">
	.st0{fill:#FFFFFF;}
	.st1{fill:url(#SVGID_1_);}
	.st2{fill:#C58821;}
	.st3{fill:url(#SVGID_00000012463994590207199290000017632545567963866257_);}
</style>
<path class="st0" d="M1273.4,63.8c0,5.5-1.5,10.1-4.3,13.2c-2.3,2.6-5.5,4.2-9,4.2h-9.5c0,0-0.1,0-0.1-0.1c0,0-0.1-0.1,0-0.1v-5.8
	v-0.1l0.1-0.1h6.6c4,0,6.2-4.1,6.2-11.4s-2.2-11.4-6.2-11.4h-11c0,0-0.1,0-0.1,0.1v49.5c0,0.1-0.1,0.2-0.2,0.2h-9.6
	c-0.1,0-0.2-0.1-0.2-0.2V46.3c0,0,0-0.1,0.1-0.1c0,0,0.1-0.1,0.1,0h23.8C1268.2,46.3,1273.3,53.2,1273.4,63.8L1273.4,63.8z
	 M1289.1,46.3h-9.6h-0.1l-0.1,0.1V102c0,0.1,0.1,0.2,0.2,0.2h9.6c0.1,0,0.2-0.1,0.2-0.2V46.4C1289.3,46.3,1289.2,46.3,1289.1,46.3
	L1289.1,46.3z M1330.9,59.6h-17.2c-15.4,0-17.4,11.3-17.4,21.2v8.6c0,7.4,4.6,12.8,10.9,12.8h9.3c0.1,0,0.2-0.1,0.2-0.2v-5.8
	c0-0.1-0.1-0.2-0.2-0.2h-6.7c-1.5,0-3.6-0.7-3.6-6v-9.3c0-6.2,0.6-10.1,1.8-12.3c1.4-2.5,3.6-2.8,5.5-2.8h7.3c0,0,0.1,0,0.1,0.1
	v36.2c0,0.1,0.1,0.2,0.2,0.2h9.6c0.1,0,0.2-0.1,0.2-0.2V59.7C1331.1,59.7,1331,59.6,1330.9,59.6L1330.9,59.6L1330.9,59.6z
	 M1400.5,69.6l-4.7-0.4c-3.5-0.3-6.2-2.3-6.2-8.1c0-6.8,3-8.7,7.1-8.7h13.1c0.1,0,0.2-0.1,0.2-0.2v-5.8c0-0.1-0.1-0.2-0.2-0.2h-14.5
	c-9,0-15.3,5.3-15.3,15.8v0.5c0,8.3,5.1,14.3,12.7,14.8l4.7,0.3c3.6,0.3,5.9,3.5,5.9,8.4v1.4c0,3.1-0.8,8.7-7.3,8.7h-13.7
	c-0.1,0-0.2,0.1-0.2,0.2v5.8c0,0.1,0.1,0.2,0.2,0.2h16.9c5.2,0,14-2.1,14-16.3c0-5.2-1.2-9.2-3.5-12.1
	C1407.6,71.2,1404.6,69.9,1400.5,69.6L1400.5,69.6z M1479.2,59.6H1462c-15.4,0-17.4,11.3-17.4,21.2v8.6c0,7.4,4.6,12.8,10.9,12.8
	h9.3c0.1,0,0.2-0.1,0.2-0.2v-5.8c0-0.1-0.1-0.2-0.2-0.2h-6.5c-1.5,0-3.6-0.7-3.6-6v-9.3c0-6.2,0.6-10.1,1.8-12.3
	c1.4-2.5,3.6-2.8,5.5-2.8h7.4c0,0,0.1,0,0.1,0.1v36.2c0,0.1,0.1,0.2,0.2,0.2h9.6c0.1,0,0.2-0.1,0.2-0.2V59.7
	C1479.4,59.7,1479.3,59.6,1479.2,59.6L1479.2,59.6z M1440.7,59.6h-10.4c0,0-0.1,0-0.1-0.1v-7c0-0.1-0.1-0.2-0.2-0.2h-9.6
	c-0.1,0-0.2,0.1-0.2,0.2v37c0,7.4,4.6,12.8,11,12.8h6.9c0.1,0,0.2-0.1,0.2-0.2v-5.8c0-0.1-0.1-0.2-0.2-0.2h-4.2
	c-1,0-3.6-0.1-3.6-5.5V65.7c0,0,0-0.1,0.1-0.1h10.5c0.1,0,0.2-0.1,0.2-0.2v-5.7C1440.8,59.7,1440.8,59.6,1440.7,59.6L1440.7,59.6
	L1440.7,59.6z M1507.9,59.6h-10.4c0,0-0.1,0-0.1-0.1v-7v-0.1l-0.1-0.1h-9.6h-0.1l-0.1,0.1v36.9c0,7.4,4.6,12.8,10.9,12.8h6.9
	c0,0,0.1,0,0.1-0.1s0-0.1,0-0.1v-5.8V96l-0.1-0.1h-4.3c-1.1,0-3.6-0.1-3.6-5.5V65.6v-0.1h10.4c0.1,0,0.2-0.1,0.2-0.2L1507.9,59.6
	C1508.1,59.7,1508,59.6,1507.9,59.6L1507.9,59.6L1507.9,59.6z M1523.8,59.6h-9.6c-0.1,0-0.2,0.1-0.2,0.2V102c0,0.1,0.1,0.2,0.2,0.2
	h9.6c0.1,0,0.2-0.1,0.2-0.2V59.8C1524,59.7,1523.9,59.6,1523.8,59.6L1523.8,59.6z M1523.8,46.3h-9.6c-0.1,0-0.2,0.1-0.2,0.2v8.1
	c0,0.1,0.1,0.2,0.2,0.2h9.6h0.1v-0.1v-8.2C1524,46.4,1523.9,46.3,1523.8,46.3L1523.8,46.3L1523.8,46.3z M1590.4,59.6h-17.1
	c-0.1,0-0.2,0.1-0.2,0.2V102c0,0.1,0.1,0.2,0.2,0.2h9.6c0.1,0,0.2-0.1,0.2-0.2V65.8c0,0,0,0,0-0.1c0,0,0,0,0.1,0h7.3
	c2,0,4.1,0.3,5.5,2.6c1.3,2.1,1.8,5.7,1.8,11.4V102c0,0.1,0.1,0.2,0.2,0.2h9.6c0.1,0,0.2-0.1,0.2-0.2V80.9
	C1607.8,70.9,1605.8,59.6,1590.4,59.6L1590.4,59.6L1590.4,59.6z M1566.7,80.9c0,9.9-2.1,21.3-18.1,21.3c-16,0-18.1-11.4-18.1-21.3
	c0-9.9,2.1-21.3,18.1-21.3S1566.7,71,1566.7,80.9L1566.7,80.9z M1556.7,80.9c0-7.3-0.9-11.5-2.9-13.5c-1.2-1.2-2.8-1.7-5.2-1.7
	s-4,0.5-5.2,1.7c-2.1,2-2.9,6.1-2.9,13.5l0,0c0,6.2,0.6,10.1,2.1,12.4c1.5,2.5,4,2.8,6.1,2.8c2.1,0,4.6-0.3,6.1-2.8
	C1556.1,91.1,1556.7,87.1,1556.7,80.9L1556.7,80.9L1556.7,80.9z M1376.4,59.6h-9.1c-0.1,0-0.2,0.1-0.2,0.2l-10.6,27.5
	c0,0.1-0.1,0.1-0.1,0l-9.4-27.5c0-0.1-0.1-0.2-0.2-0.2h-10.1h-0.1v0.1l14.3,41.9c0,0.1,0,0.2,0,0.3l-8,20.7c0,0.1,0,0.2,0.1,0.2h8.4
	c0.1,0,0.2-0.1,0.2-0.2l25.1-62.9C1376.5,59.7,1376.5,59.6,1376.4,59.6L1376.4,59.6z M1614,97.5c0,2.6,2.1,4.7,4.7,4.7
	c2.6,0,4.7-2.1,4.7-4.7c0-2.6-2.1-4.7-4.6-4.7c-1.2,0-2.5,0.4-3.3,1.3C1614.4,95.1,1614,96.3,1614,97.5L1614,97.5z M1614.7,97.5
	c0-2.2,1.8-3.9,4-3.9c2.2,0,3.9,1.8,3.9,3.9c0,2.2-1.8,3.9-3.9,3.9c-1.1,0-2.1-0.4-2.8-1.1C1615.1,99.6,1614.7,98.6,1614.7,97.5
	L1614.7,97.5L1614.7,97.5z M1616.8,100.2h1v-2.3h0.6c0.8,0,1,0.2,1.1,0.8c0.1,0.4,0.3,1,0.4,1.5h1c-0.2-0.5-0.3-1-0.5-1.7
	c-0.2-0.7-0.4-0.9-0.8-1l0,0c0.6-0.1,1.1-0.7,1-1.3c0-1.1-0.7-1.4-1.7-1.4h-2.2L1616.8,100.2L1616.8,100.2z M1617.8,95.5h0.9
	c0.5,0,1,0.1,1,0.8s-0.4,0.9-1.1,0.9h-0.9C1617.8,97.3,1617.8,95.5,1617.8,95.5z M1629.5,102.2h6.9V78.6h11.6
	c9.9,0,18.5-4.4,18.5-16.8c0-12.4-8.6-15.9-18.6-15.9h-18.4V102.2L1629.5,102.2z M1636.4,51.7h10.2c7.2,0,13,1.7,13,10.4
	s-5.8,10.8-12.3,10.8h-10.9V51.7z M1671.8,44.3v57.9h6.7V44.3L1671.8,44.3L1671.8,44.3z M1720.5,102.2V60.6h-6.7v23.6
	c0,9.7-5.7,13.7-11.3,13.7c-7.6,0-9.8-4.7-9.8-12.4V60.6h-6.7V88c0,9.1,5.5,15.1,14.9,15.1c5.8,0,10.6-2.7,13.1-7.1h0.1v6.1
	L1720.5,102.2L1720.5,102.2z M1753.1,61.9c-3.1-1.6-7.5-2.3-11.9-2.3c-6.9,0-14.3,3.6-14.3,11.7c0,5.8,4.3,9.4,11.7,12.1
	c6.5,2.4,10.1,4.5,10.1,8.4c0,4.6-3.6,6.1-8.5,6.1c-4.3-0.1-8.5-1.2-12.4-3l-1.7,5.3c4.4,2,9.1,3,14,3c7.4,0,15.2-2.9,15.2-11.7
	c0-7-5.2-10-13-12.9c-6.6-2.4-8.8-4.3-8.8-7.8c0-4.5,4.1-5.8,7.9-5.8c3.6-0.1,7.1,0.6,10.4,2.1L1753.1,61.9L1753.1,61.9z
	 M1165.4,125.1h-1.9v-0.6h4.4v0.6h-1.8v5.6h-0.8C1165.4,130.7,1165.4,125.1,1165.4,125.1z M1171.8,130L1171.8,130l1.8-5.5h1.3v6.2
	h-0.7v-5.6l0,0l-1.9,5.6h-0.9l-1.8-5.6l0,0v5.6h-0.7v-6.2h1.3L1171.8,130L1171.8,130z"/>
<linearGradient id="SVGID_1_" gradientUnits="userSpaceOnUse" x1="204.3898" y1="215.6398" x2="205.4798" y2="214.8099" gradientTransform="matrix(88.59 0 0 -87.99 -17028.959 19007.0449)">
	<stop  offset="3.000000e-02" style="stop-color:#FFE842"/>
	<stop  offset="1" style="stop-color:#FDC100"/>
</linearGradient>
<path class="st1" d="M1192.9,76.1l-4.7-34.2c-0.2-1.3-0.8-2.4-1.9-3.2c-1-0.8-2.3-1.1-3.6-0.9l-39.3,5.4l-5.3-39
	c-0.2-1.3-0.8-2.4-1.9-3.2c-1-0.8-2.3-1.1-3.6-0.9l-34.5,4.7c-0.7,0.1-1.3,0.3-1.8,0.6c-0.5,0.3-1,0.7-1.4,1.2s-0.7,1.1-0.8,1.7
	c-0.2,0.6-0.2,1.3-0.1,1.9l5.3,39l-39.3,5.4c-0.6,0.1-1.3,0.3-1.8,0.6s-1,0.7-1.4,1.2c-0.8,1-1.1,2.3-0.9,3.6l4.7,34.2
	c0.2,1.3,0.9,2.4,1.9,3.2s2.3,1.1,3.6,0.9l39.3-5.4l5.3,39c0.2,1.3,0.8,2.4,1.9,3.2c1,0.8,2.3,1.1,3.6,0.9l34.4-4.7
	c1.3-0.2,2.4-0.9,3.2-1.9c0.8-1,1.1-2.3,0.9-3.6l-5.3-39l39.3-5.4c0.6-0.1,1.3-0.3,1.8-0.6s1-0.7,1.4-1.2s0.6-1.1,0.8-1.7
	C1192.9,77.4,1193,76.8,1192.9,76.1L1192.9,76.1L1192.9,76.1z"/>
<path class="st2" d="M1165.7,47c-6.1,0.8-11.2,5.3-12.7,11.3c-1.6,6,0.6,12.3,5.5,16.1s11.6,4.1,17,1s8.3-9.2,7.4-15.3
	c-0.6-4-2.7-7.7-5.9-10.1C1173.8,47.5,1169.7,46.4,1165.7,47L1165.7,47z M1169.2,72.2c-4.1,0.6-8.1-1.4-10.2-4.9
	c-2.1-3.6-1.8-8,0.7-11.3s6.7-4.7,10.7-3.7s6.9,4.4,7.5,8.5C1178.6,66.3,1174.7,71.4,1169.2,72.2L1169.2,72.2z M1115.8,8.8
	l-12.5,31.5l33.8-4.6L1115.8,8.8z M1111.4,34l6-15l10.2,12.8L1111.4,34L1111.4,34z M1064.5,62.2l3.8,27.6l27.6-3.8l-3.8-27.6
	L1064.5,62.2z M1072.7,84l-2.4-17.4l17.5-2.4l2.4,17.4L1072.7,84z M1133.9,111.4l12,9.1l-3.1,4.1l-12-9.1l-9.1,12l-4.1-3.1l9.1-12
	l-12-9.1l3.1-4.1l12,9.1l9.1-12l4.1,3.1C1143,99.3,1133.9,111.4,1133.9,111.4z"/>
<linearGradient id="SVGID_00000087374751260992626200000015753695715200443577_" gradientUnits="userSpaceOnUse" x1="203.7494" y1="216.238" x2="204.7294" y2="215.278" gradientTransform="matrix(94.06 0 0 -91.71 -18099.8203 19870.9941)">
	<stop  offset="0" style="stop-color:#C58821"/>
	<stop  offset="1" style="stop-color:#9B6C1B"/>
</linearGradient>
<path style="fill:url(#SVGID_00000087374751260992626200000015753695715200443577_);" d="M1191.9,79.7l-9.4,12.3
	c-0.8,1-1.9,1.7-3.2,1.9l-28.3,3.9l-1.5-10.9l39.3-5.4c0.6-0.1,1.3-0.3,1.8-0.6C1191.1,80.6,1191.5,80.2,1191.9,79.7L1191.9,79.7
	L1191.9,79.7z M1152.4,130.8c-0.6,0.3-1.2,0.5-1.8,0.6l-34.5,4.7c-1.3,0.2-2.6-0.1-3.6-0.9s-1.7-1.9-1.9-3.2l-5.3-39l-39.3,5.4
	c-1.3,0.2-2.6-0.2-3.6-0.9c-1-0.8-1.7-1.9-1.9-3.2l-4.7-34.2c-0.2-1.3,0.2-2.6,0.9-3.6l-9.4,12.3c-0.8,1-1.2,2.3-1,3.6l4.7,34.2
	c0.2,1.3,0.8,2.4,1.9,3.2c1,0.8,2.3,1.1,3.6,0.9l39.3-5.4l5.4,39c0.2,1.3,0.8,2.4,1.9,3.2c1,0.8,2.3,1.1,3.6,0.9l34.5-4.7
	c1.3-0.2,2.4-0.8,3.2-1.9l9.4-12.4C1153.4,130.1,1152.9,130.5,1152.4,130.8L1152.4,130.8L1152.4,130.8z M1094,10.2
	c-0.1-0.6,0-1.3,0.1-1.9c0.2-0.6,0.4-1.2,0.8-1.7l-9.5,12.3c-0.8,1-1.1,2.3-0.9,3.6l3.8,28.1l10.9-1.5L1094,10.2L1094,10.2z"/>
<g>
	<path class="st0" d="M122.3,48.5v10.1h-13.7v41.5H96.1V58.6H82.4V48.5H122.3z"/>
	<path class="st0" d="M162.2,91H143l-3.1,9.1h-13.2l18.7-51.6H160l18.7,51.6h-13.3L162.2,91z M159,81.3l-6.4-18.9l-6.3,18.9H159z"/>
	<path class="st0" d="M244.2,48.5v51.6h-12.6v-31l-11.5,31H210l-11.6-31v31h-12.6V48.5h14.9l14.5,35.7l14.3-35.7H244.2z"/>
	<path class="st0" d="M293.2,78.1c1.8,2.3,2.7,5,2.7,8c0,4.3-1.5,7.7-4.5,10.3c-3,2.5-7.2,3.8-12.6,3.8h-24V48.5H278
		c5.2,0,9.4,1.2,12.3,3.6c3,2.4,4.4,5.7,4.4,9.8c0,3-0.8,5.6-2.4,7.6c-1.6,2-3.7,3.4-6.4,4.2C289,74.3,291.4,75.8,293.2,78.1z
		 M267.3,69.4h8.2c2.1,0,3.6-0.5,4.7-1.4c1.1-0.9,1.7-2.2,1.7-4c0-1.8-0.6-3.1-1.7-4c-1.1-0.9-2.7-1.4-4.7-1.4h-8.2V69.4z
		 M281.5,88.6c1.2-1,1.7-2.3,1.7-4.2c0-1.8-0.6-3.2-1.8-4.3c-1.2-1-2.9-1.5-5-1.5h-9.1V90h9.3C278.7,90,280.3,89.5,281.5,88.6z"/>
	<path class="st0" d="M317.3,48.5v51.6h-12.6V48.5H317.3z"/>
	<path class="st0" d="M340.4,58.6v10.4h16.8v9.7h-16.8v11.3h19v10.1h-31.6V48.5h31.6v10.1H340.4z M351.9,38.2l-17.7,7.4v-8.7
		l17.7-8.5V38.2z"/>
	<path class="st0" d="M415.3,100.2h-12.6l-21-31.8v31.8h-12.6V48.5h12.6l21,32v-32h12.6V100.2z"/>
	<path class="st0" d="M455.5,58.6v10.4h16.8v9.7h-16.8v11.3h19v10.1h-31.6V48.5h31.6v10.1H455.5z"/>
	<path class="st0" d="M530.3,100.2h-12.6l-21-31.8v31.8h-12.6V48.5h12.6l21,32v-32h12.6V100.2z"/>
	<path class="st0" d="M559.2,60.6c2.2-4,5.3-7.1,9.2-9.3c3.9-2.2,8.4-3.3,13.4-3.3c6.1,0,11.4,1.6,15.7,4.9
		c4.4,3.2,7.3,7.6,8.8,13.2h-13.8c-1-2.2-2.5-3.8-4.4-4.9c-1.9-1.1-4-1.7-6.4-1.7c-3.9,0-7,1.3-9.4,4c-2.4,2.7-3.6,6.3-3.6,10.8
		c0,4.5,1.2,8.1,3.6,10.8c2.4,2.7,5.5,4,9.4,4c2.4,0,4.5-0.6,6.4-1.7c1.9-1.1,3.3-2.8,4.4-4.9h13.8c-1.5,5.6-4.4,10-8.8,13.2
		c-4.4,3.2-9.6,4.8-15.7,4.8c-5,0-9.5-1.1-13.4-3.3c-3.9-2.2-7-5.3-9.2-9.3c-2.2-4-3.3-8.5-3.3-13.6C555.9,69.2,557,64.6,559.2,60.6
		z"/>
	<path class="st0" d="M647.6,91h-19.3l-3.1,9.1h-13.2l18.7-51.6h14.6l18.7,51.6h-13.3L647.6,91z M644.4,81.3L638,62.4l-6.3,18.9
		H644.4z"/>
	<path class="st0" d="M708.3,48.5v10.1h-13.7v41.5H682V58.6h-13.7V48.5H708.3z"/>
	<path class="st0" d="M748.2,91H729l-3.1,9.1h-13.2l18.7-51.6h14.6l18.7,51.6h-13.3L748.2,91z M745,81.3l-6.4-18.9l-6.3,18.9H745z"
		/>
	<path class="st0" d="M784.3,90.5h16.5v9.7h-29V48.5h12.6V90.5z"/>
	<path class="st0" d="M819.4,97.3c-4-2.3-7.3-5.4-9.6-9.4c-2.4-4-3.6-8.6-3.6-13.6c0-5,1.2-9.6,3.6-13.6c2.4-4,5.6-7.2,9.6-9.4
		c4-2.3,8.5-3.4,13.3-3.4s9.3,1.1,13.3,3.4c4,2.3,7.2,5.4,9.6,9.4c2.3,4,3.5,8.6,3.5,13.6c0,5-1.2,9.6-3.5,13.6
		c-2.4,4-5.5,7.2-9.6,9.4c-4,2.3-8.5,3.4-13.3,3.4S823.4,99.5,819.4,97.3z M842.6,85.1c2.5-2.7,3.7-6.4,3.7-10.9
		c0-4.6-1.2-8.2-3.7-10.9c-2.5-2.7-5.8-4.1-9.9-4.1c-4.2,0-7.5,1.3-10,4c-2.5,2.7-3.7,6.3-3.7,11c0,4.6,1.2,8.2,3.7,10.9
		s5.8,4.1,10,4.1C836.8,89.2,840.1,87.8,842.6,85.1z"/>
	<path class="st0" d="M901.8,64.9c-0.9-1.7-2.3-3-4-3.9c-1.7-0.9-3.8-1.4-6.1-1.4c-4.1,0-7.3,1.3-9.8,4c-2.5,2.7-3.7,6.2-3.7,10.7
		c0,4.8,1.3,8.5,3.9,11.1c2.6,2.7,6.1,4,10.6,4c3.1,0,5.7-0.8,7.8-2.4c2.1-1.6,3.7-3.8,4.7-6.8h-16V71h27.4v11.7
		c-0.9,3.1-2.5,6.1-4.7,8.8c-2.2,2.7-5.1,4.9-8.5,6.5c-3.4,1.7-7.3,2.5-11.6,2.5c-5.1,0-9.6-1.1-13.6-3.3c-4-2.2-7.1-5.3-9.3-9.3
		c-2.2-4-3.3-8.5-3.3-13.6c0-5.1,1.1-9.6,3.3-13.6c2.2-4,5.3-7.1,9.3-9.3c4-2.2,8.5-3.3,13.6-3.3c6.2,0,11.4,1.5,15.6,4.5
		c4.2,3,7,7.1,8.4,12.4H901.8z"/>
	<path class="st0" d="M936.1,97.3c-4-2.3-7.3-5.4-9.6-9.4c-2.4-4-3.6-8.6-3.6-13.6c0-5,1.2-9.6,3.6-13.6c2.4-4,5.6-7.2,9.6-9.4
		c4-2.3,8.5-3.4,13.3-3.4s9.3,1.1,13.3,3.4c4,2.3,7.2,5.4,9.6,9.4c2.3,4,3.5,8.6,3.5,13.6c0,5-1.2,9.6-3.5,13.6
		c-2.4,4-5.5,7.2-9.6,9.4c-4,2.3-8.5,3.4-13.3,3.4S940.2,99.5,936.1,97.3z M959.4,85.1c2.5-2.7,3.7-6.4,3.7-10.9
		c0-4.6-1.2-8.2-3.7-10.9c-2.5-2.7-5.8-4.1-9.9-4.1c-4.2,0-7.5,1.3-10,4c-2.5,2.7-3.7,6.3-3.7,11c0,4.6,1.2,8.2,3.7,10.9
		s5.8,4.1,10,4.1C953.6,89.2,956.9,87.8,959.4,85.1z"/>
	<path class="st0" d="M984.8,68.9c-1.4-1.3-2.1-2.9-2.1-4.8c0-2,0.7-3.6,2.1-4.9c1.4-1.3,3.2-2,5.4-2c2.2,0,3.9,0.7,5.3,2
		c1.4,1.3,2.1,3,2.1,4.9c0,1.9-0.7,3.5-2.1,4.8c-1.4,1.3-3.2,1.9-5.3,1.9C988,70.8,986.2,70.2,984.8,68.9z M984.8,98.8
		c-1.4-1.3-2.1-2.9-2.1-4.8c0-2,0.7-3.6,2.1-4.9s3.2-2,5.4-2c2.2,0,3.9,0.7,5.3,2c1.4,1.3,2.1,3,2.1,4.9c0,1.9-0.7,3.5-2.1,4.8
		c-1.4,1.3-3.2,1.9-5.3,1.9C988,100.7,986.2,100.1,984.8,98.8z"/>
</g>
<text transform="matrix(1 0 0 1 112.9834 -177.2294)" class="st0" style="font-family:'Poppins-Bold'; font-size:73.5324px; letter-spacing:1;">TAMBIÉN EN CATALOGO:</text>
<text transform="matrix(1 0 0 1 -80.3419 -576.7453)" class="st0" style="font-family:'Poppins-Bold'; font-size:87.2776px; letter-spacing:1;">TAMBIÉN EN CATALOGO:</text>
</svg>
