<?xml version="1.0" encoding="utf-8"?>
<!-- Generator: Adobe Illustrator 25.4.1, SVG Export Plug-In . SVG Version: 6.00 Build 0)  -->
<svg version="1.1" id="Layer_1" xmlns="http://www.w3.org/2000/svg" xmlns:xlink="http://www.w3.org/1999/xlink" x="0px" y="0px"
	 viewBox="0 0 709.1 233.6" style="enable-background:new 0 0 709.1 233.6;" xml:space="preserve">
<style type="text/css">
	.st0{fill:#FFFFFF;}
	.st1{fill:url(#SVGID_1_);}
	.st2{fill:#C58821;}
	.st3{fill:url(#SVGID_00000000937371273957851900000014539007881187931780_);}
</style>
<g>
	<path class="st0" d="M227.2,149c0,5.5-1.5,10.1-4.3,13.2c-2.3,2.6-5.5,4.2-9,4.2h-9.5c0,0-0.1,0-0.1-0.1c0,0-0.1-0.1,0-0.1v-5.8
		v-0.1l0.1-0.1h6.6c4,0,6.2-4.1,6.2-11.4s-2.2-11.4-6.2-11.4h-11c0,0-0.1,0-0.1,0.1V187c0,0.1-0.1,0.2-0.2,0.2h-9.6
		c-0.1,0-0.2-0.1-0.2-0.2v-55.5c0,0,0-0.1,0.1-0.1c0,0,0.1-0.1,0.1,0h23.8C222,131.5,227.1,138.4,227.2,149L227.2,149z M242.9,131.5
		h-9.6h-0.1l-0.1,0.1v55.6c0,0.1,0.1,0.2,0.2,0.2h9.6c0.1,0,0.2-0.1,0.2-0.2v-55.6C243.1,131.5,243,131.5,242.9,131.5L242.9,131.5z
		 M284.7,144.8h-17.2c-15.4,0-17.4,11.3-17.4,21.2v8.6c0,7.4,4.6,12.8,10.9,12.8h9.3c0.1,0,0.2-0.1,0.2-0.2v-5.8
		c0-0.1-0.1-0.2-0.2-0.2h-6.7c-1.5,0-3.6-0.7-3.6-6v-9.3c0-6.2,0.6-10.1,1.8-12.3c1.4-2.5,3.6-2.8,5.5-2.8h7.3c0,0,0.1,0,0.1,0.1
		v36.2c0,0.1,0.1,0.2,0.2,0.2h9.6c0.1,0,0.2-0.1,0.2-0.2v-42.2C284.9,144.9,284.8,144.8,284.7,144.8L284.7,144.8L284.7,144.8z
		 M354.3,154.8l-4.7-0.4c-3.5-0.3-6.2-2.3-6.2-8.1c0-6.8,3-8.7,7.1-8.7h13.1c0.1,0,0.2-0.1,0.2-0.2v-5.8c0-0.1-0.1-0.2-0.2-0.2
		h-14.5c-9,0-15.3,5.3-15.3,15.8v0.5c0,8.3,5.1,14.3,12.7,14.8l4.7,0.3c3.6,0.3,5.9,3.5,5.9,8.4v1.4c0,3.1-0.8,8.7-7.3,8.7h-13.7
		c-0.1,0-0.2,0.1-0.2,0.2v5.8c0,0.1,0.1,0.2,0.2,0.2H353c5.2,0,14-2.1,14-16.3c0-5.2-1.2-9.2-3.5-12.1
		C361.4,156.4,358.4,155.1,354.3,154.8L354.3,154.8z M433,144.8h-17.2c-15.4,0-17.4,11.3-17.4,21.2v8.6c0,7.4,4.6,12.8,10.9,12.8
		h9.3c0.1,0,0.2-0.1,0.2-0.2v-5.8c0-0.1-0.1-0.2-0.2-0.2h-6.5c-1.5,0-3.6-0.7-3.6-6v-9.3c0-6.2,0.6-10.1,1.8-12.3
		c1.4-2.5,3.6-2.8,5.5-2.8h7.4c0,0,0.1,0,0.1,0.1v36.2c0,0.1,0.1,0.2,0.2,0.2h9.6c0.1,0,0.2-0.1,0.2-0.2v-42.2
		C433.2,144.9,433.1,144.8,433,144.8L433,144.8z M394.5,144.8h-10.4c0,0-0.1,0-0.1-0.1v-7c0-0.1-0.1-0.2-0.2-0.2h-9.6
		c-0.1,0-0.2,0.1-0.2,0.2v37c0,7.4,4.6,12.8,11,12.8h6.9c0.1,0,0.2-0.1,0.2-0.2v-5.8c0-0.1-0.1-0.2-0.2-0.2h-4.2
		c-1,0-3.6-0.1-3.6-5.5v-24.9c0,0,0-0.1,0.1-0.1h10.5c0.1,0,0.2-0.1,0.2-0.2v-5.7C394.6,144.9,394.6,144.8,394.5,144.8L394.5,144.8
		L394.5,144.8z M461.7,144.8h-10.4c0,0-0.1,0-0.1-0.1v-7v-0.1l-0.1-0.1h-9.6h-0.1l-0.1,0.1v36.9c0,7.4,4.6,12.8,10.9,12.8h6.9
		c0,0,0.1,0,0.1-0.1s0-0.1,0-0.1v-5.8v-0.1l-0.1-0.1h-4.3c-1.1,0-3.6-0.1-3.6-5.5v-24.8v-0.1h10.4c0.1,0,0.2-0.1,0.2-0.2
		L461.7,144.8C461.9,144.9,461.8,144.8,461.7,144.8L461.7,144.8L461.7,144.8z M477.6,144.8H468c-0.1,0-0.2,0.1-0.2,0.2v42.2
		c0,0.1,0.1,0.2,0.2,0.2h9.6c0.1,0,0.2-0.1,0.2-0.2V145C477.8,144.9,477.7,144.8,477.6,144.8L477.6,144.8z M477.6,131.5H468
		c-0.1,0-0.2,0.1-0.2,0.2v8.1c0,0.1,0.1,0.2,0.2,0.2h9.6h0.1v-0.1v-8.2C477.8,131.6,477.7,131.5,477.6,131.5L477.6,131.5
		L477.6,131.5z M544.2,144.8h-17.1c-0.1,0-0.2,0.1-0.2,0.2v42.2c0,0.1,0.1,0.2,0.2,0.2h9.6c0.1,0,0.2-0.1,0.2-0.2V151c0,0,0,0,0-0.1
		c0,0,0,0,0.1,0h7.3c2,0,4.1,0.3,5.5,2.6c1.3,2.1,1.8,5.7,1.8,11.4v22.3c0,0.1,0.1,0.2,0.2,0.2h9.6c0.1,0,0.2-0.1,0.2-0.2v-21.1
		C561.6,156.1,559.6,144.8,544.2,144.8L544.2,144.8L544.2,144.8z M520.5,166.1c0,9.9-2.1,21.3-18.1,21.3s-18.1-11.4-18.1-21.3
		c0-9.9,2.1-21.3,18.1-21.3C518.4,144.8,520.5,156.2,520.5,166.1L520.5,166.1z M510.5,166.1c0-7.3-0.9-11.5-2.9-13.5
		c-1.2-1.2-2.8-1.7-5.2-1.7s-4,0.5-5.2,1.7c-2.1,2-2.9,6.1-2.9,13.5l0,0c0,6.2,0.6,10.1,2.1,12.4c1.5,2.5,4,2.8,6.1,2.8
		s4.6-0.3,6.1-2.8C509.9,176.3,510.5,172.3,510.5,166.1L510.5,166.1L510.5,166.1z M330.2,144.8h-9.1c-0.1,0-0.2,0.1-0.2,0.2
		l-10.6,27.5c0,0.1-0.1,0.1-0.1,0l-9.4-27.5c0-0.1-0.1-0.2-0.2-0.2h-10.1h-0.1v0.1l14.3,41.9c0,0.1,0,0.2,0,0.3l-8,20.7
		c0,0.1,0,0.2,0.1,0.2h8.4c0.1,0,0.2-0.1,0.2-0.2l25.1-62.9C330.3,144.9,330.3,144.8,330.2,144.8L330.2,144.8z M567.8,182.7
		c0,2.6,2.1,4.7,4.7,4.7s4.7-2.1,4.7-4.7c0-2.6-2.1-4.7-4.6-4.7c-1.2,0-2.5,0.4-3.3,1.3C568.2,180.3,567.8,181.5,567.8,182.7
		L567.8,182.7z M568.5,182.7c0-2.2,1.8-3.9,4-3.9s3.9,1.8,3.9,3.9c0,2.2-1.8,3.9-3.9,3.9c-1.1,0-2.1-0.4-2.8-1.1
		C568.9,184.8,568.5,183.8,568.5,182.7L568.5,182.7L568.5,182.7z M570.6,185.4h1v-2.3h0.6c0.8,0,1,0.2,1.1,0.8
		c0.1,0.4,0.3,1,0.4,1.5h1c-0.2-0.5-0.3-1-0.5-1.7s-0.4-0.9-0.8-1l0,0c0.6-0.1,1.1-0.7,1-1.3c0-1.1-0.7-1.4-1.7-1.4h-2.2
		L570.6,185.4L570.6,185.4z M571.6,180.7h0.9c0.5,0,1,0.1,1,0.8s-0.4,0.9-1.1,0.9h-0.9C571.6,182.5,571.6,180.7,571.6,180.7z
		 M583.3,187.4h6.9v-23.6h11.6c9.9,0,18.5-4.4,18.5-16.8c0-12.4-8.6-15.9-18.6-15.9h-18.4V187.4L583.3,187.4z M590.2,136.9h10.2
		c7.2,0,13,1.7,13,10.4s-5.8,10.8-12.3,10.8h-10.9V136.9z M625.6,129.5v57.9h6.7v-57.9L625.6,129.5L625.6,129.5z M674.3,187.4v-41.6
		h-6.7v23.6c0,9.7-5.7,13.7-11.3,13.7c-7.6,0-9.8-4.7-9.8-12.4v-24.9h-6.7v27.4c0,9.1,5.5,15.1,14.9,15.1c5.8,0,10.6-2.7,13.1-7.1
		h0.1v6.1L674.3,187.4L674.3,187.4z M706.9,147.1c-3.1-1.6-7.5-2.3-11.9-2.3c-6.9,0-14.3,3.6-14.3,11.7c0,5.8,4.3,9.4,11.7,12.1
		c6.5,2.4,10.1,4.5,10.1,8.4c0,4.6-3.6,6.1-8.5,6.1c-4.3-0.1-8.5-1.2-12.4-3l-1.7,5.3c4.4,2,9.1,3,14,3c7.4,0,15.2-2.9,15.2-11.7
		c0-7-5.2-10-13-12.9c-6.6-2.4-8.8-4.3-8.8-7.8c0-4.5,4.1-5.8,7.9-5.8c3.6-0.1,7.1,0.6,10.4,2.1L706.9,147.1L706.9,147.1z
		 M119.2,210.3h-1.9v-0.6h4.4v0.6h-1.8v5.6h-0.8C119.2,215.9,119.2,210.3,119.2,210.3z M125.6,215.2L125.6,215.2l1.8-5.5h1.3v6.2
		H128v-5.6l0,0l-1.9,5.6h-0.9l-1.8-5.6l0,0v5.6h-0.7v-6.2h1.3L125.6,215.2L125.6,215.2z"/>
	
		<linearGradient id="SVGID_1_" gradientUnits="userSpaceOnUse" x1="-841.8224" y1="714.7527" x2="-840.7324" y2="713.9228" gradientTransform="matrix(88.59 0 0 -87.99 74608.7656 63009.1875)">
		<stop  offset="3.000000e-02" style="stop-color:#FFE842"/>
		<stop  offset="1" style="stop-color:#FDC100"/>
	</linearGradient>
	<path class="st1" d="M146.7,161.3l-4.7-34.2c-0.2-1.3-0.8-2.4-1.9-3.2c-1-0.8-2.3-1.1-3.6-0.9l-39.3,5.4l-5.3-39
		c-0.2-1.3-0.8-2.4-1.9-3.2c-1-0.8-2.3-1.1-3.6-0.9L51.9,90c-0.7,0.1-1.3,0.3-1.8,0.6c-0.5,0.3-1,0.7-1.4,1.2s-0.7,1.1-0.8,1.7
		c-0.2,0.6-0.2,1.3-0.1,1.9l5.3,39l-39.3,5.4c-0.6,0.1-1.3,0.3-1.8,0.6s-1,0.7-1.4,1.2c-0.8,1-1.1,2.3-0.9,3.6l4.7,34.2
		c0.2,1.3,0.9,2.4,1.9,3.2s2.3,1.1,3.6,0.9l39.3-5.4l5.3,39c0.2,1.3,0.8,2.4,1.9,3.2c1,0.8,2.3,1.1,3.6,0.9l34.4-4.7
		c1.3-0.2,2.4-0.9,3.2-1.9c0.8-1,1.1-2.3,0.9-3.6l-5.3-39l39.3-5.4c0.6-0.1,1.3-0.3,1.8-0.6s1-0.7,1.4-1.2s0.6-1.1,0.8-1.7
		C146.7,162.6,146.8,162,146.7,161.3L146.7,161.3L146.7,161.3z"/>
	<path class="st2" d="M119.5,132.2c-6.1,0.8-11.2,5.3-12.7,11.3c-1.6,6,0.6,12.3,5.5,16.1s11.6,4.1,17,1c5.4-3.1,8.3-9.2,7.4-15.3
		c-0.6-4-2.7-7.7-5.9-10.1C127.6,132.7,123.5,131.6,119.5,132.2L119.5,132.2z M123,157.4c-4.1,0.6-8.1-1.4-10.2-4.9
		c-2.1-3.6-1.8-8,0.7-11.3s6.7-4.7,10.7-3.7s6.9,4.4,7.5,8.5C132.4,151.5,128.5,156.6,123,157.4L123,157.4z M69.6,94l-12.5,31.5
		l33.8-4.6L69.6,94z M65.2,119.2l6-15L81.4,117L65.2,119.2L65.2,119.2z M18.3,147.4l3.8,27.6l27.6-3.8l-3.8-27.6L18.3,147.4z
		 M26.5,169.2l-2.4-17.4l17.5-2.4l2.4,17.4L26.5,169.2z M87.7,196.6l12,9.1l-3.1,4.1l-12-9.1l-9.1,12l-4.1-3.1l9.1-12l-12-9.1
		l3.1-4.1l12,9.1l9.1-12l4.1,3.1C96.8,184.5,87.7,196.6,87.7,196.6z"/>
	
		<linearGradient id="SVGID_00000096769041621029885050000009961873101252340113_" gradientUnits="userSpaceOnUse" x1="-842.4628" y1="715.1622" x2="-841.4828" y2="714.2022" gradientTransform="matrix(94.06 0 0 -91.71 79260.6875 65712.5312)">
		<stop  offset="0" style="stop-color:#C58821"/>
		<stop  offset="1" style="stop-color:#9B6C1B"/>
	</linearGradient>
	<path style="fill:url(#SVGID_00000096769041621029885050000009961873101252340113_);" d="M145.7,164.9l-9.4,12.3
		c-0.8,1-1.9,1.7-3.2,1.9l-28.3,3.9l-1.5-10.9l39.3-5.4c0.6-0.1,1.3-0.3,1.8-0.6C144.9,165.8,145.3,165.4,145.7,164.9L145.7,164.9
		L145.7,164.9z M106.2,216c-0.6,0.3-1.2,0.5-1.8,0.6l-34.5,4.7c-1.3,0.2-2.6-0.1-3.6-0.9s-1.7-1.9-1.9-3.2l-5.3-39l-39.3,5.4
		c-1.3,0.2-2.6-0.2-3.6-0.9c-1-0.8-1.7-1.9-1.9-3.2l-4.7-34.2c-0.2-1.3,0.2-2.6,0.9-3.6L1.1,154c-0.8,1-1.2,2.3-1,3.6l4.7,34.2
		c0.2,1.3,0.8,2.4,1.9,3.2c1,0.8,2.3,1.1,3.6,0.9l39.3-5.4l5.4,39c0.2,1.3,0.8,2.4,1.9,3.2c1,0.8,2.3,1.1,3.6,0.9l34.5-4.7
		c1.3-0.2,2.4-0.8,3.2-1.9l9.4-12.4C107.2,215.3,106.7,215.7,106.2,216L106.2,216L106.2,216z M47.8,95.4c-0.1-0.6,0-1.3,0.1-1.9
		c0.2-0.6,0.4-1.2,0.8-1.7l-9.5,12.3c-0.8,1-1.1,2.3-0.9,3.6l3.8,28.1l10.9-1.5L47.8,95.4L47.8,95.4z"/>
	<g>
		<path class="st0" d="M31,15.6v7.8H20.4v32.2h-9.7V23.4H0.1v-7.8H31z"/>
		<path class="st0" d="M61.9,48.5H47l-2.4,7.1H34.4l14.5-40h11.3l14.5,40H64.3L61.9,48.5z M59.4,41l-5-14.6L49.6,41H59.4z"/>
		<path class="st0" d="M125.4,15.6v40h-9.7v-24l-8.9,24h-7.9l-9-24v24h-9.7v-40h11.5l11.2,27.7L114,15.6H125.4z"/>
		<path class="st0" d="M163.4,38.5c1.4,1.8,2.1,3.9,2.1,6.2c0,3.3-1.2,6-3.5,7.9c-2.3,2-5.6,2.9-9.8,2.9h-18.6v-40h18
			c4.1,0,7.2,0.9,9.5,2.8c2.3,1.9,3.4,4.4,3.4,7.6c0,2.4-0.6,4.3-1.9,5.9c-1.2,1.6-2.9,2.6-4.9,3.2C160.1,35.6,162,36.7,163.4,38.5z
			 M143.3,31.8h6.4c1.6,0,2.8-0.4,3.7-1.1c0.9-0.7,1.3-1.7,1.3-3.1c0-1.4-0.4-2.4-1.3-3.1c-0.9-0.7-2.1-1.1-3.7-1.1h-6.4V31.8z
			 M154.3,46.6c0.9-0.7,1.3-1.8,1.3-3.2c0-1.4-0.5-2.5-1.4-3.3c-0.9-0.8-2.2-1.2-3.8-1.2h-7.1v8.8h7.2
			C152.1,47.7,153.4,47.4,154.3,46.6z"/>
		<path class="st0" d="M182,15.6v40h-9.7v-40H182z"/>
		<path class="st0" d="M199.9,23.4v8.1h13V39h-13v8.8h14.8v7.8h-24.5v-40h24.5v7.8H199.9z M208.8,7.6l-13.7,5.8V6.6L208.8,0V7.6z"/>
		<path class="st0" d="M257.9,55.6h-9.7l-16.3-24.7v24.7h-9.7v-40h9.7l16.3,24.8V15.6h9.7V55.6z"/>
		<path class="st0" d="M289.1,23.4v8.1h13V39h-13v8.8h14.8v7.8h-24.5v-40h24.5v7.8H289.1z"/>
		<path class="st0" d="M347.1,55.6h-9.7L321,30.9v24.7h-9.7v-40h9.7l16.3,24.8V15.6h9.7V55.6z"/>
		<path class="st0" d="M369.4,25c1.7-3.1,4.1-5.5,7.1-7.2c3.1-1.7,6.5-2.6,10.4-2.6c4.7,0,8.8,1.3,12.2,3.8
			c3.4,2.5,5.6,5.9,6.8,10.3h-10.7c-0.8-1.7-1.9-2.9-3.4-3.8c-1.5-0.9-3.1-1.3-5-1.3c-3,0-5.4,1-7.3,3.1c-1.9,2.1-2.8,4.9-2.8,8.4
			c0,3.5,0.9,6.3,2.8,8.4c1.9,2.1,4.3,3.1,7.3,3.1c1.9,0,3.5-0.4,5-1.3c1.5-0.9,2.6-2.1,3.4-3.8h10.7c-1.1,4.3-3.4,7.7-6.8,10.2
			c-3.4,2.5-7.4,3.7-12.2,3.7c-3.9,0-7.3-0.9-10.4-2.6c-3.1-1.7-5.4-4.1-7.1-7.2c-1.7-3.1-2.6-6.6-2.6-10.5
			C366.8,31.6,367.7,28.1,369.4,25z"/>
		<path class="st0" d="M437.9,48.5H423l-2.4,7.1h-10.2l14.5-40h11.3l14.5,40h-10.3L437.9,48.5z M435.4,41l-5-14.6L425.6,41H435.4z"
			/>
		<path class="st0" d="M484.9,15.6v7.8h-10.6v32.2h-9.7V23.4H454v-7.8H484.9z"/>
		<path class="st0" d="M515.8,48.5h-14.9l-2.4,7.1h-10.2l14.5-40h11.3l14.5,40h-10.3L515.8,48.5z M513.3,41l-5-14.6L503.5,41H513.3z
			"/>
		<path class="st0" d="M543.8,48.1h12.8v7.5h-22.5v-40h9.7V48.1z"/>
		<path class="st0" d="M570.9,53.4c-3.1-1.7-5.6-4.2-7.5-7.3c-1.8-3.1-2.8-6.7-2.8-10.6c0-3.9,0.9-7.4,2.8-10.5
			c1.8-3.1,4.3-5.5,7.5-7.3c3.1-1.7,6.6-2.6,10.3-2.6s7.2,0.9,10.3,2.6c3.1,1.7,5.6,4.2,7.4,7.3c1.8,3.1,2.7,6.6,2.7,10.5
			c0,3.9-0.9,7.4-2.7,10.6c-1.8,3.1-4.3,5.6-7.4,7.3c-3.1,1.7-6.6,2.6-10.3,2.6S574.1,55.1,570.9,53.4z M588.9,43.9
			c1.9-2.1,2.9-4.9,2.9-8.4c0-3.5-1-6.4-2.9-8.5c-1.9-2.1-4.5-3.2-7.7-3.2c-3.2,0-5.8,1-7.7,3.1c-1.9,2.1-2.9,4.9-2.9,8.5
			c0,3.5,1,6.4,2.9,8.5c1.9,2.1,4.5,3.2,7.7,3.2C584.5,47.1,587,46,588.9,43.9z"/>
		<path class="st0" d="M634.8,28.3c-0.7-1.3-1.8-2.3-3.1-3c-1.3-0.7-2.9-1.1-4.8-1.1c-3.2,0-5.7,1-7.6,3.1s-2.8,4.8-2.8,8.3
			c0,3.7,1,6.6,3,8.6c2,2.1,4.7,3.1,8.2,3.1c2.4,0,4.4-0.6,6.1-1.8c1.7-1.2,2.9-3,3.6-5.2h-12.4V33h21.2v9.1
			c-0.7,2.4-1.9,4.7-3.7,6.8c-1.7,2.1-3.9,3.8-6.6,5.1c-2.7,1.3-5.7,1.9-9,1.9c-3.9,0-7.5-0.9-10.6-2.6c-3.1-1.7-5.5-4.1-7.2-7.2
			c-1.7-3.1-2.6-6.6-2.6-10.5c0-3.9,0.9-7.5,2.6-10.6c1.7-3.1,4.1-5.5,7.2-7.2c3.1-1.7,6.6-2.6,10.5-2.6c4.8,0,8.8,1.2,12.1,3.5
			c3.3,2.3,5.5,5.5,6.5,9.6H634.8z"/>
		<path class="st0" d="M661.4,53.4c-3.1-1.7-5.6-4.2-7.5-7.3c-1.8-3.1-2.8-6.7-2.8-10.6c0-3.9,0.9-7.4,2.8-10.5
			c1.8-3.1,4.3-5.5,7.5-7.3c3.1-1.7,6.6-2.6,10.3-2.6s7.2,0.9,10.3,2.6c3.1,1.7,5.6,4.2,7.4,7.3c1.8,3.1,2.7,6.6,2.7,10.5
			c0,3.9-0.9,7.4-2.7,10.6c-1.8,3.1-4.3,5.6-7.4,7.3c-3.1,1.7-6.6,2.6-10.3,2.6S664.5,55.1,661.4,53.4z M679.4,43.9
			c1.9-2.1,2.9-4.9,2.9-8.4c0-3.5-1-6.4-2.9-8.5c-1.9-2.1-4.5-3.2-7.7-3.2c-3.2,0-5.8,1-7.7,3.1c-1.9,2.1-2.9,4.9-2.9,8.5
			c0,3.5,1,6.4,2.9,8.5c1.9,2.1,4.5,3.2,7.7,3.2C674.9,47.1,677.5,46,679.4,43.9z"/>
		<path class="st0" d="M699.1,31.4c-1.1-1-1.6-2.2-1.6-3.7c0-1.5,0.5-2.8,1.6-3.8c1.1-1,2.5-1.5,4.2-1.5c1.7,0,3,0.5,4.1,1.5
			c1.1,1,1.6,2.3,1.6,3.8c0,1.5-0.5,2.7-1.6,3.7c-1.1,1-2.5,1.5-4.1,1.5C701.6,32.9,700.2,32.4,699.1,31.4z M699.1,54.5
			c-1.1-1-1.6-2.2-1.6-3.7c0-1.5,0.5-2.8,1.6-3.8c1.1-1,2.5-1.5,4.2-1.5c1.7,0,3,0.5,4.1,1.5c1.1,1,1.6,2.3,1.6,3.8
			c0,1.5-0.5,2.7-1.6,3.7c-1.1,1-2.5,1.5-4.1,1.5C701.6,56.1,700.2,55.5,699.1,54.5z"/>
	</g>
</g>
</svg>
