<svg id="Capa_1" data-name="Capa 1" xmlns="http://www.w3.org/2000/svg" viewBox="0 0 304.48 241.21"><defs><style>.cls-1{fill:#fff;}</style></defs><path class="cls-1" d="M163.78,241.21c-13.39-4.36-25.85-8.4-38.3-12.49-11.68-3.83-11.67-3.85-11.67-16V0c6.26,1.45,12.11,2.45,17.72,4.18C152.32,10.59,173.26,16.6,193.71,24c29.61,10.65,44.76,32.35,44.74,63.92,0,9.07-.51,18.46-2.85,27.15-5.81,21.57-22.9,30-44.1,22.92-8.39-2.8-8.39-2.8-8.39-11.8,0-22.16.08-44.33-.07-66.5a45.25,45.25,0,0,0-1.69-12.27c-1.48-5-7.07-8.63-11-7.62-5.15,1.33-6,5.74-6.5,10.13a45.79,45.79,0,0,0-.09,5.5V241.21Z"/><path class="cls-1" d="M172.67,237.54c0-9.33-.15-18.15.17-26.95,0-1.28,2.14-3.05,3.65-3.61,25.07-9.33,50.24-18.39,75.26-27.85,3.23-1.22,8.23-4.43,8.12-6.49-.26-4.78-5.93-5.15-9.53-5-8.56.41-17.4.77-25.5,3.23-16,4.88-31.63,11.16-47.41,16.85-1.38.5-2.79.91-4.74,1.55,0-9.86-.09-19.3.12-28.73,0-1,1.61-2.44,2.75-2.81,21.93-7.12,44.37-10.21,67.42-8.14,14.34,1.29,28.33,4.25,41.6,9.81a58.26,58.26,0,0,1,15.61,9.44c5.79,5,5.73,12.56-.21,17.46-5.56,4.59-11.82,8.92-18.49,11.46C246.25,211.2,210.78,224,175.38,237A22.07,22.07,0,0,1,172.67,237.54Z"/><path class="cls-1" d="M104.69,136.3c0,9.4.15,18.22-.17,27,0,1.34-2,3.23-3.55,3.8-15.2,5.81-30.5,11.39-45.75,17.08a23,23,0,0,0-5.83,2.72c-1.46,1.1-3.36,3.08-3.2,4.44s2.43,3.16,4.1,3.64a48.14,48.14,0,0,0,29-1.09c8.3-2.8,16.47-6,25.22-9.22v26.52a123.29,123.29,0,0,1-42,2.74,222.59,222.59,0,0,1-34.66-6.7,68.94,68.94,0,0,1-19.72-9.17c-11-7.28-10.74-18.28.82-24.47a303.49,303.49,0,0,1,34.54-15.29c18.6-7.16,37.46-13.65,56.21-20.41C101.14,137.37,102.69,136.93,104.69,136.3Z"/></svg>