<svg id="Capa_1" data-name="Capa 1" xmlns="http://www.w3.org/2000/svg" viewBox="0 0 241 241.12"><defs><style>.cls-1{fill:#fff;}</style></defs><path class="cls-1" d="M121.1,96.37c8.14,7.25,16.52,14.29,24.43,21.83,18.84,18,36.52,37,49.45,59.8,3.7,6.52,6.06,14,8.1,21.24,1.53,5.46-.79,10.24-5.38,14A120.71,120.71,0,0,1,44,213.74c-5.64-4.62-7.28-10-5.78-16.79,2.84-12.82,9.9-23.55,17.49-33.87a341.57,341.57,0,0,1,61.81-64.17C118.45,98.19,119.42,97.57,121.1,96.37Z"/><path class="cls-1" d="M87.19,65.8C75.08,83.43,63,100.16,51.87,117.46c-10.65,16.5-20.16,33.75-24.95,53-1.84,7.42-1.89,15.27-2.7,22.34A100.21,100.21,0,0,1,7.75,162.72C-7.9,117.12.21,76,31.53,39.4c5.34-6.24,7.83-6.85,15.71-3.67C60.63,41.13,71,50.78,81.5,60.31,83.59,62.21,85.57,64.23,87.19,65.8Z"/><path class="cls-1" d="M153.28,66.49C165.59,54.77,177.42,43,192.91,36.08c8-3.57,10.8-2.87,16.67,3.28,38.13,40,42.1,107.35,8.93,151.45-.67.89-1.42,1.72-2.42,2.93,2.71-23.13-7.68-41.93-17.62-60.64-12.05-22.69-26.74-43.7-42.92-63.65C154.92,68.68,154.34,67.87,153.28,66.49Z"/><path class="cls-1" d="M58,18c34.07-23,86.3-24.77,124.43-.54-.39.3-.75.8-1.05.77-17.85-2-33.94,4.06-49.23,11.91-8.08,4.16-14.38,5-22.69.3C97.51,23.6,84.35,19,70.32,18.05,66.05,17.74,61.74,18,58,18Z"/></svg>